<?xml version="1.0" encoding="UTF-8" standalone="no"?>
<!-- Created with Inkscape (http://www.inkscape.org/) -->

<svg
   xmlns:dc="http://purl.org/dc/elements/1.1/"
   xmlns:cc="http://creativecommons.org/ns#"
   xmlns:rdf="http://www.w3.org/1999/02/22-rdf-syntax-ns#"
   xmlns:svg="http://www.w3.org/2000/svg"
   xmlns="http://www.w3.org/2000/svg"
   xmlns:sodipodi="http://sodipodi.sourceforge.net/DTD/sodipodi-0.dtd"
   xmlns:inkscape="http://www.inkscape.org/namespaces/inkscape"
   width="744.09448819"
   height="1052.3622047"
   id="svg2"
   version="1.1"
   inkscape:version="0.48.5 r10040"
   sodipodi:docname="mavric.svg"
   inkscape:export-filename="/home/julien/Documents/Robots/maveric/Documentation/Logo/mavric.png"
   inkscape:export-xdpi="90"
   inkscape:export-ydpi="90">
  <defs
     id="defs4" />
  <sodipodi:namedview
     id="base"
     pagecolor="#ffffff"
     bordercolor="#666666"
     borderopacity="1.0"
     inkscape:pageopacity="0.0"
     inkscape:pageshadow="2"
     inkscape:zoom="1"
     inkscape:cx="433.0307"
     inkscape:cy="776.07234"
     inkscape:document-units="px"
     inkscape:current-layer="layer1"
     showgrid="false"
     inkscape:window-width="1600"
     inkscape:window-height="811"
     inkscape:window-x="0"
     inkscape:window-y="27"
     inkscape:window-maximized="1" />
  <metadata
     id="metadata7">
    <rdf:RDF>
      <cc:Work
         rdf:about="">
        <dc:format>image/svg+xml</dc:format>
        <dc:type
           rdf:resource="http://purl.org/dc/dcmitype/StillImage" />
        <dc:title></dc:title>
      </cc:Work>
    </rdf:RDF>
  </metadata>
  <g
     inkscape:label="Layer 1"
     inkscape:groupmode="layer"
     id="layer1">
    <path
       id="path3900"
       style="fill:#000052;fill-opacity:1;stroke:none"
       d="m 300.98284,250.26445 -10.31955,25.44305 21.70665,0 z m -44.65877,54.80041 32.7379,-79.35384 23.84174,0 35.7626,79.53176 -23.30796,0 -6.58317,-13.52218 -32.7379,0 -6.22732,13.87803 -23.84173,0 z"
       inkscape:connector-curvature="0" />
    <path
       inkscape:connector-curvature="0"
       style="fill:#000052;fill-opacity:1;stroke:none"
       d="m 425.35574,225.61733 -35.41787,79.27377 24.2087,0 12.45463,-27.13555 5.30879,0 7.22369,26.4194 24.90928,0 -11.20918,-29.71987 c 36.42434,-8.83518 29.8776,-41.95843 10.01042,-48.83775 l -37.48846,0 z m 15.30364,16.11319 10.30621,0 c 7.78748,4.67812 7.04543,15.93146 -7.64404,18.58854 l -10.49303,0 7.83086,-18.58854 z"
       id="path3917" />
    <path
       inkscape:connector-curvature="0"
       style="fill:#000052;fill-opacity:1;stroke:none"
       d="m 38.28125,204.81646 9.46875,17.09374 277.4375,0 44.09375,98 45.28125,-98 277.1875,0 9.46875,-17.09374 -303.6875,0.3125 -7.1875,16.65624 -0.28125,0 -20.6875,47.5625 -20.03125,-47.4375 -0.125,0 -7.25,-16.78124 -303.6875,-0.3125 z"
       id="path3123" />
    <path
       style="fill:#000052;fill-opacity:1;stroke:none"
       d="m 97.01502,310.37722 253.93747,0 8.28821,17.46996 -251.33202,0 z"
       id="path3763"
       inkscape:connector-curvature="0"
       sodipodi:nodetypes="ccccc" />
    <path
       style="fill:#000052;fill-opacity:1;stroke:none"
       d="m 173.75,226.125 0,79.625 19.1875,0 0,-31.84375 L 203,291.375 l 8.75,0 8.75,0 10.0625,-17.46875 0,31.84375 19.1875,0 0,-79.625 -19,0 -19,41 -19,-41 -19,0 z"
       id="path3813"
       inkscape:connector-curvature="0" />
    <g
       id="g3860"
       style="stroke:none"
       transform="translate(-34,-76)">
      <path
         sodipodi:nodetypes="ccccc"
         inkscape:connector-curvature="0"
         id="path3826"
         d="M 84.499998,302.73721 129,381.6122 l 71.99999,0 0,-78.87499 z"
         style="fill:#fe0000;fill-opacity:1;stroke:none" />
      <path
         inkscape:connector-curvature="0"
         id="rect3828"
         d="m 144.40625,313.21875 0,18 -18,0 0,18.03125 18,0 0,18 18.03125,0 0,-18 18,0 0,-18.03125 -18,0 0,-18 -18.03125,0 z"
         style="fill:#ffffff;fill-opacity:1;stroke:none" />
    </g>
    <rect
       style="fill:#000052;fill-opacity:1;stroke:none"
       id="rect3846"
       width="21.113131"
       height="78.211998"
       x="487.54132"
       y="226.30338" />
    <path
       style="fill:#000052;fill-opacity:1;stroke:none"
       d="m 530.58148,226.5625 -10.70648,11.41545 0.53033,55.86459 10.92653,11.31371 34.10564,0 0,-16.71875 -24.28125,0 0,-45.15625 24.28125,0 0,-16.71875 z"
       id="rect3848"
       inkscape:connector-curvature="0"
       sodipodi:nodetypes="ccccccccccc" />
    <g
       id="g3864"
       style="stroke:none"
       transform="translate(-34,-76)">
      <path
         style="fill:#fe0000;fill-opacity:1;stroke:none"
         d="m 722.99998,302.73721 -44.5,78.87499 -71.99999,0 0,-78.87499 z"
         id="path3856"
         inkscape:connector-curvature="0"
         sodipodi:nodetypes="ccccc" />
      <path
         style="fill:#ffffff;fill-opacity:1;stroke:none"
         d="m 663.09373,313.21875 0,18 18,0 0,18.03125 -18,0 0,18 -18.03125,0 0,-18 -18,0 0,-18.03125 18,0 0,-18 18.03125,0 z"
         id="path3858"
         inkscape:connector-curvature="0" />
    </g>
    <path
       sodipodi:nodetypes="ccccc"
       inkscape:connector-curvature="0"
       id="path3872"
       d="m 639.87369,310.37722 -253.93747,0 -8.28821,17.46996 251.33202,0 z"
       style="fill:#000052;fill-opacity:1;stroke:none" />
  </g>
</svg>
