  0
SECTION
  2
HEADER
  9
$ACADVER
  1
AC1014
  9
$HANDSEED
  5
FFFF
  9
$MEASUREMENT
 70
     1
  0
ENDSEC
  0
SECTION
  2
TABLES
  0
TABLE
  2
VPORT
  5
8
330
0
100
AcDbSymbolTable
 70
     4
  0
VPORT
  5
2E
330
8
100
AcDbSymbolTableRecord
100
AcDbViewportTableRecord
  2
*ACTIVE
 70
     0
 10
0.0
 20
0.0
 11
1.0
 21
1.0
 12
210.0
 22
148.5
 13
0.0
 23
0.0
 14
10.0
 24
10.0
 15
10.0
 25
10.0
 16
0.0
 26
0.0
 36
1.0
 17
0.0
 27
0.0
 37
0.0
 40
341.0
 41
1.24
 42
50.0
 43
0.0
 44
0.0
 50
0.0
 51
0.0
 71
     0
 72
   100
 73
     1
 74
     3
 75
     0
 76
     0
 77
     0
 78
     0
  0
ENDTAB
  0
TABLE
  2
LTYPE
  5
5
330
0
100
AcDbSymbolTable
 70
     1
  0
LTYPE
  5
14
330
5
100
AcDbSymbolTableRecord
100
AcDbLinetypeTableRecord
  2
BYBLOCK
 70
     0
  3

 72
    65
 73
     0
 40
0.0
  0
LTYPE
  5
15
330
5
100
AcDbSymbolTableRecord
100
AcDbLinetypeTableRecord
  2
BYLAYER
 70
     0
  3

 72
    65
 73
     0
 40
0.0
  0
LTYPE
  5
16
330
5
100
AcDbSymbolTableRecord
100
AcDbLinetypeTableRecord
  2
CONTINUOUS
 70
     0
  3
Solid line
 72
    65
 73
     0
 40
0.0
  0
ENDTAB
  0
TABLE
  2
LAYER
  5
2
100
AcDbSymbolTable
 70
16
  0
LAYER
  5
50
100
AcDbSymbolTableRecord
100
AcDbLayerTableRecord
  2
0
 70
0
  6
CONTINUOUS
  0
LAYER
  5
51
100
AcDbSymbolTableRecord
100
AcDbLayerTableRecord
  2
CONSTRUCTION
 70
0
  6
CONTINUOUS
  0
LAYER
  5
52
100
AcDbSymbolTableRecord
100
AcDbLayerTableRecord
  2
CONSTRUCTION_MAIN_POD
 70
0
  6
CONTINUOUS
  0
LAYER
  5
53
100
AcDbSymbolTableRecord
100
AcDbLayerTableRecord
  2
CONSTRUCTION_HOOD
 70
0
  6
CONTINUOUS
  0
LAYER
  5
54
100
AcDbSymbolTableRecord
100
AcDbLayerTableRecord
  2
3DPRINTABLES
 70
0
  6
CONTINUOUS
  0
LAYER
  5
55
100
AcDbSymbolTableRecord
100
AcDbLayerTableRecord
  2
CARBON
 70
0
  6
CONTINUOUS
  0
LAYER
  5
56
100
AcDbSymbolTableRecord
100
AcDbLayerTableRecord
  2
ACCESSORIES
 70
0
  6
CONTINUOUS
  0
LAYER
  5
57
100
AcDbSymbolTableRecord
100
AcDbLayerTableRecord
  2
DUPLICATES
 70
0
  6
CONTINUOUS
  0
LAYER
  5
58
100
AcDbSymbolTableRecord
100
AcDbLayerTableRecord
  2
LIGHT_QUAD3_CENTRAL_HUB
 70
0
  6
CONTINUOUS
  0
LAYER
  5
59
100
AcDbSymbolTableRecord
100
AcDbLayerTableRecord
  2
LIGHT_QUAD3_CENTRAL_HUB_CO
 70
0
  6
CONTINUOUS
  0
LAYER
  5
5a
100
AcDbSymbolTableRecord
100
AcDbLayerTableRecord
  2
LIGHT_QUAD3_CENTRAL_HUB_C0
 70
0
  6
CONTINUOUS
  0
LAYER
  5
5b
100
AcDbSymbolTableRecord
100
AcDbLayerTableRecord
  2
LIGHT_QUAD3_CENTRAL_HUB_3D
 70
0
  6
CONTINUOUS
  0
LAYER
  5
5c
100
AcDbSymbolTableRecord
100
AcDbLayerTableRecord
  2
LIGHT_QUAD3_CENTRAL_HUB_CA
 70
0
  6
CONTINUOUS
  0
LAYER
  5
5d
100
AcDbSymbolTableRecord
100
AcDbLayerTableRecord
  2
SHEET_VIEW_1
 70
0
  6
CONTINUOUS
  0
LAYER
  5
5e
100
AcDbSymbolTableRecord
100
AcDbLayerTableRecord
  2
SHEET_VIEW_1_TITLE_BLOCK_1
 70
0
  6
CONTINUOUS
  0
LAYER
  5
5f
100
AcDbSymbolTableRecord
100
AcDbLayerTableRecord
  2
SHEET_VIEW_1_DRAWING_1
 70
0
  6
CONTINUOUS
  0
ENDTAB
  0
TABLE
  2
STYLE
  5
3
330
0
100
AcDbSymbolTable
 70
     1
  0
STYLE
  5
11
330
3
100
AcDbSymbolTableRecord
100
AcDbTextStyleTableRecord
  2
STANDARD
 70
     0
 40
0.0
 41
1.0
 50
0.0
 71
     0
 42
2.5
  3
txt
  4

  0
ENDTAB
  0
TABLE
  2
VIEW
  5
6
330
0
100
AcDbSymbolTable
 70
     0
  0
ENDTAB
  0
TABLE
  2
UCS
  5
7
330
0
100
AcDbSymbolTable
 70
     0
  0
ENDTAB
  0
TABLE
  2
APPID
  5
9
330
0
100
AcDbSymbolTable
 70
     2
  0
APPID
  5
12
330
9
100
AcDbSymbolTableRecord
100
AcDbRegAppTableRecord
  2
ACAD
 70
     0
  0
ENDTAB
  0
TABLE
  2
DIMSTYLE
  5
A
330
0
100
AcDbSymbolTable
 70
     1
  0
DIMSTYLE
105
27
330
A
100
AcDbSymbolTableRecord
100
AcDbDimStyleTableRecord
  2
ISO-25
 70
     0
  3

  4

  5

  6

  7

 40
1.0
 41
2.5
 42
0.625
 43
3.75
 44
1.25
 45
0.0
 46
0.0
 47
0.0
 48
0.0
140
2.5
141
2.5
142
0.0
143
0.03937007874016
144
1.0
145
0.0
146
1.0
147
0.625
 71
     0
 72
     0
 73
     0
 74
     0
 75
     0
 76
     0
 77
     1
 78
     8
170
     0
171
     3
172
     1
173
     0
174
     0
175
     0
176
     0
177
     0
178
     0
270
     2
271
     2
272
     2
273
     2
274
     3
340
11
275
     0
280
     0
281
     0
282
     0
283
     0
284
     8
285
     0
286
     0
287
     3
288
     0
  0
ENDTAB
  0
TABLE
  2
BLOCK_RECORD
  5
1
330
0
100
AcDbSymbolTable
 70
     1
  0
BLOCK_RECORD
  5
1F
330
1
100
AcDbSymbolTableRecord
100
AcDbBlockTableRecord
  2
*MODEL_SPACE
  0
BLOCK_RECORD
  5
1B
330
1
100
AcDbSymbolTableRecord
100
AcDbBlockTableRecord
  2
*PAPER_SPACE
  0
ENDTAB
  0
ENDSEC
  0
SECTION
  2
BLOCKS
  0
BLOCK
  5
20
330
1F
100
AcDbEntity
  8
0
100
AcDbBlockBegin
  2
*MODEL_SPACE
 70
     0
 10
0.0
 20
0.0
 30
0.0
  3
*MODEL_SPACE
  1

  0
ENDBLK
  5
21
330
1F
100
AcDbEntity
  8
0
100
AcDbBlockEnd
  0
BLOCK
  5
1C
330
1B
100
AcDbEntity
 67
     1
  8
0
100
AcDbBlockBegin
  2
*PAPER_SPACE
  1

  0
ENDBLK
  5
1D
330
1B
100
AcDbEntity
 67
     1
  8
0
100
AcDbBlockEnd
  0
ENDSEC
  0
SECTION
  2
ENTITIES
  0
LWPOLYLINE
  5
100
100
AcDbEntity
  8
SHEET_VIEW_1_DRAWING_1
 62
7
100
AcDbPolyline
 90
2
 70
0
 10
81.716824
 20
189.207843
 30
0.0
 10
81.810571
 20
189.354996
 30
0.0
  0
LWPOLYLINE
  5
101
100
AcDbEntity
  8
SHEET_VIEW_1_DRAWING_1
 62
7
100
AcDbPolyline
 90
2
 70
0
 10
81.636260
 20
189.053079
 30
0.0
 10
81.716824
 20
189.207843
 30
0.0
  0
LWPOLYLINE
  5
102
100
AcDbEntity
  8
SHEET_VIEW_1_DRAWING_1
 62
7
100
AcDbPolyline
 90
2
 70
0
 10
81.569490
 20
188.891883
 30
0.0
 10
81.636260
 20
189.053079
 30
0.0
  0
LWPOLYLINE
  5
103
100
AcDbEntity
  8
SHEET_VIEW_1_DRAWING_1
 62
7
100
AcDbPolyline
 90
2
 70
0
 10
81.517023
 20
188.725481
 30
0.0
 10
81.569490
 20
188.891883
 30
0.0
  0
LWPOLYLINE
  5
104
100
AcDbEntity
  8
SHEET_VIEW_1_DRAWING_1
 62
7
100
AcDbPolyline
 90
2
 70
0
 10
81.479260
 20
188.555139
 30
0.0
 10
81.517023
 20
188.725481
 30
0.0
  0
LWPOLYLINE
  5
105
100
AcDbEntity
  8
SHEET_VIEW_1_DRAWING_1
 62
7
100
AcDbPolyline
 90
2
 70
0
 10
81.456486
 20
188.382154
 30
0.0
 10
81.479260
 20
188.555139
 30
0.0
  0
LWPOLYLINE
  5
106
100
AcDbEntity
  8
SHEET_VIEW_1_DRAWING_1
 62
7
100
AcDbPolyline
 90
2
 70
0
 10
81.448875
 20
188.207843
 30
0.0
 10
81.456486
 20
188.382154
 30
0.0
  0
LWPOLYLINE
  5
107
100
AcDbEntity
  8
SHEET_VIEW_1_DRAWING_1
 62
7
100
AcDbPolyline
 90
2
 70
0
 10
81.810571
 20
189.354996
 30
0.0
 10
81.916786
 20
189.493418
 30
0.0
  0
LWPOLYLINE
  5
108
100
AcDbEntity
  8
SHEET_VIEW_1_DRAWING_1
 62
7
100
AcDbPolyline
 90
2
 70
0
 10
81.569490
 20
187.523802
 30
0.0
 10
81.517023
 20
187.690205
 30
0.0
  0
LWPOLYLINE
  5
109
100
AcDbEntity
  8
SHEET_VIEW_1_DRAWING_1
 62
7
100
AcDbPolyline
 90
2
 70
0
 10
81.636260
 20
187.362606
 30
0.0
 10
81.569490
 20
187.523802
 30
0.0
  0
LWPOLYLINE
  5
10a
100
AcDbEntity
  8
SHEET_VIEW_1_DRAWING_1
 62
7
100
AcDbPolyline
 90
2
 70
0
 10
81.716824
 20
187.207843
 30
0.0
 10
81.636260
 20
187.362606
 30
0.0
  0
LWPOLYLINE
  5
10b
100
AcDbEntity
  8
SHEET_VIEW_1_DRAWING_1
 62
7
100
AcDbPolyline
 90
2
 70
0
 10
81.810571
 20
187.060690
 30
0.0
 10
81.716824
 20
187.207843
 30
0.0
  0
LWPOLYLINE
  5
10c
100
AcDbEntity
  8
SHEET_VIEW_1_DRAWING_1
 62
7
100
AcDbPolyline
 90
2
 70
0
 10
83.101579
 20
186.238227
 30
0.0
 10
82.931237
 20
186.275991
 30
0.0
  0
LWPOLYLINE
  5
10d
100
AcDbEntity
  8
SHEET_VIEW_1_DRAWING_1
 62
7
100
AcDbPolyline
 90
2
 70
0
 10
83.274564
 20
186.215453
 30
0.0
 10
83.101579
 20
186.238227
 30
0.0
  0
LWPOLYLINE
  5
10e
100
AcDbEntity
  8
SHEET_VIEW_1_DRAWING_1
 62
7
100
AcDbPolyline
 90
2
 70
0
 10
83.448875
 20
186.207843
 30
0.0
 10
83.274564
 20
186.215453
 30
0.0
  0
LWPOLYLINE
  5
10f
100
AcDbEntity
  8
SHEET_VIEW_1_DRAWING_1
 62
7
100
AcDbPolyline
 90
8
 70
0
 10
81.916786
 20
189.493418
 30
0.0
 10
82.034661
 20
189.622056
 30
0.0
 10
82.163300
 20
189.739931
 30
0.0
 10
82.301722
 20
189.846147
 30
0.0
 10
82.448875
 20
189.939894
 30
0.0
 10
82.603639
 20
190.020458
 30
0.0
 10
82.764835
 20
190.087228
 30
0.0
 10
82.931237
 20
190.139694
 30
0.0
  0
LWPOLYLINE
  5
110
100
AcDbEntity
  8
SHEET_VIEW_1_DRAWING_1
 62
7
100
AcDbPolyline
 90
2
 70
0
 10
85.380727
 20
187.690205
 30
0.0
 10
85.328260
 20
187.523802
 30
0.0
  0
LWPOLYLINE
  5
111
100
AcDbEntity
  8
SHEET_VIEW_1_DRAWING_1
 62
7
100
AcDbPolyline
 90
2
 70
0
 10
85.418491
 20
187.860546
 30
0.0
 10
85.380727
 20
187.690205
 30
0.0
  0
LWPOLYLINE
  5
112
100
AcDbEntity
  8
SHEET_VIEW_1_DRAWING_1
 62
7
100
AcDbPolyline
 90
2
 70
0
 10
85.441265
 20
188.033531
 30
0.0
 10
85.418491
 20
187.860546
 30
0.0
  0
LWPOLYLINE
  5
113
100
AcDbEntity
  8
SHEET_VIEW_1_DRAWING_1
 62
7
100
AcDbPolyline
 90
2
 70
0
 10
85.448875
 20
188.207843
 30
0.0
 10
85.441265
 20
188.033531
 30
0.0
  0
LWPOLYLINE
  5
114
100
AcDbEntity
  8
SHEET_VIEW_1_DRAWING_1
 62
7
100
AcDbPolyline
 90
2
 70
0
 10
85.441265
 20
188.382154
 30
0.0
 10
85.448875
 20
188.207843
 30
0.0
  0
LWPOLYLINE
  5
115
100
AcDbEntity
  8
SHEET_VIEW_1_DRAWING_1
 62
7
100
AcDbPolyline
 90
2
 70
0
 10
85.418491
 20
188.555139
 30
0.0
 10
85.441265
 20
188.382154
 30
0.0
  0
LWPOLYLINE
  5
116
100
AcDbEntity
  8
SHEET_VIEW_1_DRAWING_1
 62
7
100
AcDbPolyline
 90
2
 70
0
 10
85.380727
 20
188.725481
 30
0.0
 10
85.418491
 20
188.555139
 30
0.0
  0
LWPOLYLINE
  5
117
100
AcDbEntity
  8
SHEET_VIEW_1_DRAWING_1
 62
7
100
AcDbPolyline
 90
2
 70
0
 10
85.328260
 20
188.891883
 30
0.0
 10
85.380727
 20
188.725481
 30
0.0
  0
LWPOLYLINE
  5
118
100
AcDbEntity
  8
SHEET_VIEW_1_DRAWING_1
 62
7
100
AcDbPolyline
 90
2
 70
0
 10
85.261491
 20
189.053079
 30
0.0
 10
85.328260
 20
188.891883
 30
0.0
  0
LWPOLYLINE
  5
119
100
AcDbEntity
  8
SHEET_VIEW_1_DRAWING_1
 62
7
100
AcDbPolyline
 90
2
 70
0
 10
85.180926
 20
189.207843
 30
0.0
 10
85.261491
 20
189.053079
 30
0.0
  0
LWPOLYLINE
  5
11a
100
AcDbEntity
  8
SHEET_VIEW_1_DRAWING_1
 62
7
100
AcDbPolyline
 90
2
 70
0
 10
85.087179
 20
189.354996
 30
0.0
 10
85.180926
 20
189.207843
 30
0.0
  0
LWPOLYLINE
  5
11b
100
AcDbEntity
  8
SHEET_VIEW_1_DRAWING_1
 62
7
100
AcDbPolyline
 90
2
 70
0
 10
84.980964
 20
189.493418
 30
0.0
 10
85.087179
 20
189.354996
 30
0.0
  0
LWPOLYLINE
  5
11c
100
AcDbEntity
  8
SHEET_VIEW_1_DRAWING_1
 62
7
100
AcDbPolyline
 90
2
 70
0
 10
84.863089
 20
189.622056
 30
0.0
 10
84.980964
 20
189.493418
 30
0.0
  0
LWPOLYLINE
  5
11d
100
AcDbEntity
  8
SHEET_VIEW_1_DRAWING_1
 62
7
100
AcDbPolyline
 90
2
 70
0
 10
84.734450
 20
189.739931
 30
0.0
 10
84.863089
 20
189.622056
 30
0.0
  0
LWPOLYLINE
  5
11e
100
AcDbEntity
  8
SHEET_VIEW_1_DRAWING_1
 62
7
100
AcDbPolyline
 90
2
 70
0
 10
84.596028
 20
189.846147
 30
0.0
 10
84.734450
 20
189.739931
 30
0.0
  0
LWPOLYLINE
  5
11f
100
AcDbEntity
  8
SHEET_VIEW_1_DRAWING_1
 62
7
100
AcDbPolyline
 90
2
 70
0
 10
84.448875
 20
189.939894
 30
0.0
 10
84.596028
 20
189.846147
 30
0.0
  0
LWPOLYLINE
  5
120
100
AcDbEntity
  8
SHEET_VIEW_1_DRAWING_1
 62
7
100
AcDbPolyline
 90
2
 70
0
 10
84.294112
 20
190.020458
 30
0.0
 10
84.448875
 20
189.939894
 30
0.0
  0
LWPOLYLINE
  5
121
100
AcDbEntity
  8
SHEET_VIEW_1_DRAWING_1
 62
7
100
AcDbPolyline
 90
2
 70
0
 10
84.132915
 20
190.087228
 30
0.0
 10
84.294112
 20
190.020458
 30
0.0
  0
LWPOLYLINE
  5
122
100
AcDbEntity
  8
SHEET_VIEW_1_DRAWING_1
 62
7
100
AcDbPolyline
 90
2
 70
0
 10
83.966513
 20
190.139694
 30
0.0
 10
84.132915
 20
190.087228
 30
0.0
  0
LWPOLYLINE
  5
123
100
AcDbEntity
  8
SHEET_VIEW_1_DRAWING_1
 62
7
100
AcDbPolyline
 90
2
 70
0
 10
83.796171
 20
190.177458
 30
0.0
 10
83.966513
 20
190.139694
 30
0.0
  0
LWPOLYLINE
  5
124
100
AcDbEntity
  8
SHEET_VIEW_1_DRAWING_1
 62
7
100
AcDbPolyline
 90
2
 70
0
 10
83.623186
 20
190.200232
 30
0.0
 10
83.796171
 20
190.177458
 30
0.0
  0
LWPOLYLINE
  5
125
100
AcDbEntity
  8
SHEET_VIEW_1_DRAWING_1
 62
7
100
AcDbPolyline
 90
2
 70
0
 10
83.448875
 20
190.207843
 30
0.0
 10
83.623186
 20
190.200232
 30
0.0
  0
LWPOLYLINE
  5
126
100
AcDbEntity
  8
SHEET_VIEW_1_DRAWING_1
 62
7
100
AcDbPolyline
 90
2
 70
0
 10
83.274564
 20
190.200232
 30
0.0
 10
83.448875
 20
190.207843
 30
0.0
  0
LWPOLYLINE
  5
127
100
AcDbEntity
  8
SHEET_VIEW_1_DRAWING_1
 62
7
100
AcDbPolyline
 90
2
 70
0
 10
83.101579
 20
190.177458
 30
0.0
 10
83.274564
 20
190.200232
 30
0.0
  0
LWPOLYLINE
  5
128
100
AcDbEntity
  8
SHEET_VIEW_1_DRAWING_1
 62
7
100
AcDbPolyline
 90
2
 70
0
 10
82.931237
 20
190.139694
 30
0.0
 10
83.101579
 20
190.177458
 30
0.0
  0
LWPOLYLINE
  5
129
100
AcDbEntity
  8
SHEET_VIEW_1_DRAWING_1
 62
7
100
AcDbPolyline
 90
2
 70
0
 10
85.261491
 20
187.362606
 30
0.0
 10
85.180926
 20
187.207843
 30
0.0
  0
LWPOLYLINE
  5
12a
100
AcDbEntity
  8
SHEET_VIEW_1_DRAWING_1
 62
7
100
AcDbPolyline
 90
2
 70
0
 10
85.328260
 20
187.523802
 30
0.0
 10
85.261491
 20
187.362606
 30
0.0
  0
LWPOLYLINE
  5
12b
100
AcDbEntity
  8
SHEET_VIEW_1_DRAWING_1
 62
7
100
AcDbPolyline
 90
13
 70
0
 10
85.180926
 20
187.207843
 30
0.0
 10
85.087179
 20
187.060690
 30
0.0
 10
84.980964
 20
186.922267
 30
0.0
 10
84.863089
 20
186.793629
 30
0.0
 10
84.734450
 20
186.675754
 30
0.0
 10
84.596028
 20
186.569538
 30
0.0
 10
84.448875
 20
186.475792
 30
0.0
 10
84.294112
 20
186.395227
 30
0.0
 10
84.132915
 20
186.328457
 30
0.0
 10
83.966513
 20
186.275991
 30
0.0
 10
83.796171
 20
186.238227
 30
0.0
 10
83.623186
 20
186.215453
 30
0.0
 10
83.448875
 20
186.207843
 30
0.0
  0
LWPOLYLINE
  5
12c
100
AcDbEntity
  8
SHEET_VIEW_1_DRAWING_1
 62
7
100
AcDbPolyline
 90
2
 70
0
 10
82.764835
 20
186.328457
 30
0.0
 10
82.603639
 20
186.395227
 30
0.0
  0
LWPOLYLINE
  5
12d
100
AcDbEntity
  8
SHEET_VIEW_1_DRAWING_1
 62
7
100
AcDbPolyline
 90
2
 70
0
 10
82.931237
 20
186.275991
 30
0.0
 10
82.764835
 20
186.328457
 30
0.0
  0
LWPOLYLINE
  5
12e
100
AcDbEntity
  8
SHEET_VIEW_1_DRAWING_1
 62
7
100
AcDbPolyline
 90
7
 70
0
 10
82.603639
 20
186.395227
 30
0.0
 10
82.448875
 20
186.475792
 30
0.0
 10
82.301722
 20
186.569538
 30
0.0
 10
82.163300
 20
186.675754
 30
0.0
 10
82.034661
 20
186.793629
 30
0.0
 10
81.916786
 20
186.922267
 30
0.0
 10
81.810571
 20
187.060690
 30
0.0
  0
LWPOLYLINE
  5
12f
100
AcDbEntity
  8
SHEET_VIEW_1_DRAWING_1
 62
7
100
AcDbPolyline
 90
2
 70
0
 10
81.456486
 20
188.033531
 30
0.0
 10
81.448875
 20
188.207843
 30
0.0
  0
LWPOLYLINE
  5
130
100
AcDbEntity
  8
SHEET_VIEW_1_DRAWING_1
 62
7
100
AcDbPolyline
 90
2
 70
0
 10
81.479260
 20
187.860546
 30
0.0
 10
81.456486
 20
188.033531
 30
0.0
  0
LWPOLYLINE
  5
131
100
AcDbEntity
  8
SHEET_VIEW_1_DRAWING_1
 62
7
100
AcDbPolyline
 90
2
 70
0
 10
81.517023
 20
187.690205
 30
0.0
 10
81.479260
 20
187.860546
 30
0.0
  0
LWPOLYLINE
  5
132
100
AcDbEntity
  8
SHEET_VIEW_1_DRAWING_1
 62
7
100
AcDbPolyline
 90
2
 70
0
 10
81.232157
 20
179.445398
 30
0.0
 10
81.967921
 20
178.976665
 30
0.0
  0
LWPOLYLINE
  5
133
100
AcDbEntity
  8
SHEET_VIEW_1_DRAWING_1
 62
7
100
AcDbPolyline
 90
2
 70
0
 10
76.232157
 20
160.785144
 30
0.0
 10
75.360600
 20
160.823197
 30
0.0
  0
LWPOLYLINE
  5
134
100
AcDbEntity
  8
SHEET_VIEW_1_DRAWING_1
 62
7
100
AcDbPolyline
 90
2
 70
0
 10
66.232157
 20
170.785144
 30
0.0
 10
66.270210
 20
171.656701
 30
0.0
  0
LWPOLYLINE
  5
135
100
AcDbEntity
  8
SHEET_VIEW_1_DRAWING_1
 62
7
100
AcDbPolyline
 90
2
 70
0
 10
66.835231
 20
174.205346
 30
0.0
 10
67.169079
 20
175.011327
 30
0.0
  0
LWPOLYLINE
  5
136
100
AcDbEntity
  8
SHEET_VIEW_1_DRAWING_1
 62
7
100
AcDbPolyline
 90
2
 70
0
 10
68.040637
 20
176.520908
 30
0.0
 10
68.571713
 20
177.213020
 30
0.0
  0
LWPOLYLINE
  5
137
100
AcDbEntity
  8
SHEET_VIEW_1_DRAWING_1
 62
7
100
AcDbPolyline
 90
2
 70
0
 10
77.968639
 20
180.633222
 30
0.0
 10
78.820348
 20
180.444402
 30
0.0
  0
LWPOLYLINE
  5
138
100
AcDbEntity
  8
SHEET_VIEW_1_DRAWING_1
 62
7
100
AcDbPolyline
 90
2
 70
0
 10
86.232157
 20
170.785144
 30
0.0
 10
86.194104
 20
169.913587
 30
0.0
  0
LWPOLYLINE
  5
139
100
AcDbEntity
  8
SHEET_VIEW_1_DRAWING_1
 62
7
100
AcDbPolyline
 90
2
 70
0
 10
86.194104
 20
171.656701
 30
0.0
 10
86.232157
 20
170.785144
 30
0.0
  0
LWPOLYLINE
  5
13a
100
AcDbEntity
  8
SHEET_VIEW_1_DRAWING_1
 62
7
100
AcDbPolyline
 90
2
 70
0
 10
86.080235
 20
172.521626
 30
0.0
 10
86.194104
 20
171.656701
 30
0.0
  0
LWPOLYLINE
  5
13b
100
AcDbEntity
  8
SHEET_VIEW_1_DRAWING_1
 62
7
100
AcDbPolyline
 90
2
 70
0
 10
85.891415
 20
173.373334
 30
0.0
 10
86.080235
 20
172.521626
 30
0.0
  0
LWPOLYLINE
  5
13c
100
AcDbEntity
  8
SHEET_VIEW_1_DRAWING_1
 62
7
100
AcDbPolyline
 90
2
 70
0
 10
85.629083
 20
174.205346
 30
0.0
 10
85.891415
 20
173.373334
 30
0.0
  0
LWPOLYLINE
  5
13d
100
AcDbEntity
  8
SHEET_VIEW_1_DRAWING_1
 62
7
100
AcDbPolyline
 90
2
 70
0
 10
85.295235
 20
175.011327
 30
0.0
 10
85.629083
 20
174.205346
 30
0.0
  0
LWPOLYLINE
  5
13e
100
AcDbEntity
  8
SHEET_VIEW_1_DRAWING_1
 62
7
100
AcDbPolyline
 90
2
 70
0
 10
84.892411
 20
175.785144
 30
0.0
 10
85.295235
 20
175.011327
 30
0.0
  0
LWPOLYLINE
  5
13f
100
AcDbEntity
  8
SHEET_VIEW_1_DRAWING_1
 62
7
100
AcDbPolyline
 90
2
 70
0
 10
84.423678
 20
176.520908
 30
0.0
 10
84.892411
 20
175.785144
 30
0.0
  0
LWPOLYLINE
  5
140
100
AcDbEntity
  8
SHEET_VIEW_1_DRAWING_1
 62
7
100
AcDbPolyline
 90
2
 70
0
 10
83.892601
 20
177.213020
 30
0.0
 10
84.423678
 20
176.520908
 30
0.0
  0
LWPOLYLINE
  5
141
100
AcDbEntity
  8
SHEET_VIEW_1_DRAWING_1
 62
7
100
AcDbPolyline
 90
2
 70
0
 10
83.303225
 20
177.856212
 30
0.0
 10
83.892601
 20
177.213020
 30
0.0
  0
LWPOLYLINE
  5
142
100
AcDbEntity
  8
SHEET_VIEW_1_DRAWING_1
 62
7
100
AcDbPolyline
 90
2
 70
0
 10
82.660033
 20
178.445589
 30
0.0
 10
83.303225
 20
177.856212
 30
0.0
  0
LWPOLYLINE
  5
143
100
AcDbEntity
  8
SHEET_VIEW_1_DRAWING_1
 62
7
100
AcDbPolyline
 90
2
 70
0
 10
81.967921
 20
178.976665
 30
0.0
 10
82.660033
 20
178.445589
 30
0.0
  0
LWPOLYLINE
  5
144
100
AcDbEntity
  8
SHEET_VIEW_1_DRAWING_1
 62
7
100
AcDbPolyline
 90
2
 70
0
 10
80.458340
 20
179.848222
 30
0.0
 10
81.232157
 20
179.445398
 30
0.0
  0
LWPOLYLINE
  5
145
100
AcDbEntity
  8
SHEET_VIEW_1_DRAWING_1
 62
7
100
AcDbPolyline
 90
2
 70
0
 10
79.652358
 20
180.182070
 30
0.0
 10
80.458340
 20
179.848222
 30
0.0
  0
LWPOLYLINE
  5
146
100
AcDbEntity
  8
SHEET_VIEW_1_DRAWING_1
 62
7
100
AcDbPolyline
 90
2
 70
0
 10
78.820348
 20
180.444402
 30
0.0
 10
79.652358
 20
180.182070
 30
0.0
  0
LWPOLYLINE
  5
147
100
AcDbEntity
  8
SHEET_VIEW_1_DRAWING_1
 62
7
100
AcDbPolyline
 90
2
 70
0
 10
77.103715
 20
180.747091
 30
0.0
 10
77.968639
 20
180.633222
 30
0.0
  0
LWPOLYLINE
  5
148
100
AcDbEntity
  8
SHEET_VIEW_1_DRAWING_1
 62
7
100
AcDbPolyline
 90
2
 70
0
 10
76.232157
 20
180.785144
 30
0.0
 10
77.103715
 20
180.747091
 30
0.0
  0
LWPOLYLINE
  5
149
100
AcDbEntity
  8
SHEET_VIEW_1_DRAWING_1
 62
7
100
AcDbPolyline
 90
2
 70
0
 10
75.360600
 20
180.747091
 30
0.0
 10
76.232157
 20
180.785144
 30
0.0
  0
LWPOLYLINE
  5
14a
100
AcDbEntity
  8
SHEET_VIEW_1_DRAWING_1
 62
7
100
AcDbPolyline
 90
2
 70
0
 10
74.495675
 20
180.633222
 30
0.0
 10
75.360600
 20
180.747091
 30
0.0
  0
LWPOLYLINE
  5
14b
100
AcDbEntity
  8
SHEET_VIEW_1_DRAWING_1
 62
7
100
AcDbPolyline
 90
2
 70
0
 10
73.643967
 20
180.444402
 30
0.0
 10
74.495675
 20
180.633222
 30
0.0
  0
LWPOLYLINE
  5
14c
100
AcDbEntity
  8
SHEET_VIEW_1_DRAWING_1
 62
7
100
AcDbPolyline
 90
2
 70
0
 10
68.571713
 20
177.213020
 30
0.0
 10
69.161089
 20
177.856212
 30
0.0
  0
LWPOLYLINE
  5
14d
100
AcDbEntity
  8
SHEET_VIEW_1_DRAWING_1
 62
7
100
AcDbPolyline
 90
2
 70
0
 10
72.811956
 20
180.182070
 30
0.0
 10
73.643967
 20
180.444402
 30
0.0
  0
LWPOLYLINE
  5
14e
100
AcDbEntity
  8
SHEET_VIEW_1_DRAWING_1
 62
7
100
AcDbPolyline
 90
2
 70
0
 10
72.005974
 20
179.848222
 30
0.0
 10
72.811956
 20
180.182070
 30
0.0
  0
LWPOLYLINE
  5
14f
100
AcDbEntity
  8
SHEET_VIEW_1_DRAWING_1
 62
7
100
AcDbPolyline
 90
2
 70
0
 10
71.232157
 20
179.445398
 30
0.0
 10
72.005974
 20
179.848222
 30
0.0
  0
LWPOLYLINE
  5
150
100
AcDbEntity
  8
SHEET_VIEW_1_DRAWING_1
 62
7
100
AcDbPolyline
 90
2
 70
0
 10
70.496393
 20
178.976665
 30
0.0
 10
71.232157
 20
179.445398
 30
0.0
  0
LWPOLYLINE
  5
151
100
AcDbEntity
  8
SHEET_VIEW_1_DRAWING_1
 62
7
100
AcDbPolyline
 90
2
 70
0
 10
69.804281
 20
178.445589
 30
0.0
 10
70.496393
 20
178.976665
 30
0.0
  0
LWPOLYLINE
  5
152
100
AcDbEntity
  8
SHEET_VIEW_1_DRAWING_1
 62
7
100
AcDbPolyline
 90
2
 70
0
 10
69.161089
 20
177.856212
 30
0.0
 10
69.804281
 20
178.445589
 30
0.0
  0
LWPOLYLINE
  5
153
100
AcDbEntity
  8
SHEET_VIEW_1_DRAWING_1
 62
7
100
AcDbPolyline
 90
2
 70
0
 10
67.571903
 20
175.785144
 30
0.0
 10
68.040637
 20
176.520908
 30
0.0
  0
LWPOLYLINE
  5
154
100
AcDbEntity
  8
SHEET_VIEW_1_DRAWING_1
 62
7
100
AcDbPolyline
 90
2
 70
0
 10
67.169079
 20
175.011327
 30
0.0
 10
67.571903
 20
175.785144
 30
0.0
  0
LWPOLYLINE
  5
155
100
AcDbEntity
  8
SHEET_VIEW_1_DRAWING_1
 62
7
100
AcDbPolyline
 90
2
 70
0
 10
66.572899
 20
173.373334
 30
0.0
 10
66.835231
 20
174.205346
 30
0.0
  0
LWPOLYLINE
  5
156
100
AcDbEntity
  8
SHEET_VIEW_1_DRAWING_1
 62
7
100
AcDbPolyline
 90
2
 70
0
 10
66.384079
 20
172.521626
 30
0.0
 10
66.572899
 20
173.373334
 30
0.0
  0
LWPOLYLINE
  5
157
100
AcDbEntity
  8
SHEET_VIEW_1_DRAWING_1
 62
7
100
AcDbPolyline
 90
2
 70
0
 10
66.270210
 20
171.656701
 30
0.0
 10
66.384079
 20
172.521626
 30
0.0
  0
LWPOLYLINE
  5
158
100
AcDbEntity
  8
SHEET_VIEW_1_DRAWING_1
 62
7
100
AcDbPolyline
 90
2
 70
0
 10
66.270210
 20
169.913587
 30
0.0
 10
66.232157
 20
170.785144
 30
0.0
  0
LWPOLYLINE
  5
159
100
AcDbEntity
  8
SHEET_VIEW_1_DRAWING_1
 62
7
100
AcDbPolyline
 90
2
 70
0
 10
66.384079
 20
169.048662
 30
0.0
 10
66.270210
 20
169.913587
 30
0.0
  0
LWPOLYLINE
  5
15a
100
AcDbEntity
  8
SHEET_VIEW_1_DRAWING_1
 62
7
100
AcDbPolyline
 90
2
 70
0
 10
66.572899
 20
168.196954
 30
0.0
 10
66.384079
 20
169.048662
 30
0.0
  0
LWPOLYLINE
  5
15b
100
AcDbEntity
  8
SHEET_VIEW_1_DRAWING_1
 62
7
100
AcDbPolyline
 90
2
 70
0
 10
66.835231
 20
167.364943
 30
0.0
 10
66.572899
 20
168.196954
 30
0.0
  0
LWPOLYLINE
  5
15c
100
AcDbEntity
  8
SHEET_VIEW_1_DRAWING_1
 62
7
100
AcDbPolyline
 90
2
 70
0
 10
67.169079
 20
166.558962
 30
0.0
 10
66.835231
 20
167.364943
 30
0.0
  0
LWPOLYLINE
  5
15d
100
AcDbEntity
  8
SHEET_VIEW_1_DRAWING_1
 62
7
100
AcDbPolyline
 90
2
 70
0
 10
67.571903
 20
165.785144
 30
0.0
 10
67.169079
 20
166.558962
 30
0.0
  0
LWPOLYLINE
  5
15e
100
AcDbEntity
  8
SHEET_VIEW_1_DRAWING_1
 62
7
100
AcDbPolyline
 90
2
 70
0
 10
68.040637
 20
165.049380
 30
0.0
 10
67.571903
 20
165.785144
 30
0.0
  0
LWPOLYLINE
  5
15f
100
AcDbEntity
  8
SHEET_VIEW_1_DRAWING_1
 62
7
100
AcDbPolyline
 90
2
 70
0
 10
68.571713
 20
164.357268
 30
0.0
 10
68.040637
 20
165.049380
 30
0.0
  0
LWPOLYLINE
  5
160
100
AcDbEntity
  8
SHEET_VIEW_1_DRAWING_1
 62
7
100
AcDbPolyline
 90
2
 70
0
 10
69.161089
 20
163.714076
 30
0.0
 10
68.571713
 20
164.357268
 30
0.0
  0
LWPOLYLINE
  5
161
100
AcDbEntity
  8
SHEET_VIEW_1_DRAWING_1
 62
7
100
AcDbPolyline
 90
2
 70
0
 10
69.804281
 20
163.124700
 30
0.0
 10
69.161089
 20
163.714076
 30
0.0
  0
LWPOLYLINE
  5
162
100
AcDbEntity
  8
SHEET_VIEW_1_DRAWING_1
 62
7
100
AcDbPolyline
 90
2
 70
0
 10
70.496393
 20
162.593624
 30
0.0
 10
69.804281
 20
163.124700
 30
0.0
  0
LWPOLYLINE
  5
163
100
AcDbEntity
  8
SHEET_VIEW_1_DRAWING_1
 62
7
100
AcDbPolyline
 90
2
 70
0
 10
71.232157
 20
162.124890
 30
0.0
 10
70.496393
 20
162.593624
 30
0.0
  0
LWPOLYLINE
  5
164
100
AcDbEntity
  8
SHEET_VIEW_1_DRAWING_1
 62
7
100
AcDbPolyline
 90
2
 70
0
 10
72.005974
 20
161.722066
 30
0.0
 10
71.232157
 20
162.124890
 30
0.0
  0
LWPOLYLINE
  5
165
100
AcDbEntity
  8
SHEET_VIEW_1_DRAWING_1
 62
7
100
AcDbPolyline
 90
2
 70
0
 10
72.811956
 20
161.388218
 30
0.0
 10
72.005974
 20
161.722066
 30
0.0
  0
LWPOLYLINE
  5
166
100
AcDbEntity
  8
SHEET_VIEW_1_DRAWING_1
 62
7
100
AcDbPolyline
 90
2
 70
0
 10
73.643967
 20
161.125886
 30
0.0
 10
72.811956
 20
161.388218
 30
0.0
  0
LWPOLYLINE
  5
167
100
AcDbEntity
  8
SHEET_VIEW_1_DRAWING_1
 62
7
100
AcDbPolyline
 90
2
 70
0
 10
74.495675
 20
160.937067
 30
0.0
 10
73.643967
 20
161.125886
 30
0.0
  0
LWPOLYLINE
  5
168
100
AcDbEntity
  8
SHEET_VIEW_1_DRAWING_1
 62
7
100
AcDbPolyline
 90
2
 70
0
 10
75.360600
 20
160.823197
 30
0.0
 10
74.495675
 20
160.937067
 30
0.0
  0
LWPOLYLINE
  5
169
100
AcDbEntity
  8
SHEET_VIEW_1_DRAWING_1
 62
7
100
AcDbPolyline
 90
2
 70
0
 10
77.103715
 20
160.823197
 30
0.0
 10
76.232157
 20
160.785144
 30
0.0
  0
LWPOLYLINE
  5
16a
100
AcDbEntity
  8
SHEET_VIEW_1_DRAWING_1
 62
7
100
AcDbPolyline
 90
2
 70
0
 10
77.968639
 20
160.937067
 30
0.0
 10
77.103715
 20
160.823197
 30
0.0
  0
LWPOLYLINE
  5
16b
100
AcDbEntity
  8
SHEET_VIEW_1_DRAWING_1
 62
7
100
AcDbPolyline
 90
2
 70
0
 10
78.820348
 20
161.125886
 30
0.0
 10
77.968639
 20
160.937067
 30
0.0
  0
LWPOLYLINE
  5
16c
100
AcDbEntity
  8
SHEET_VIEW_1_DRAWING_1
 62
7
100
AcDbPolyline
 90
2
 70
0
 10
79.652358
 20
161.388218
 30
0.0
 10
78.820348
 20
161.125886
 30
0.0
  0
LWPOLYLINE
  5
16d
100
AcDbEntity
  8
SHEET_VIEW_1_DRAWING_1
 62
7
100
AcDbPolyline
 90
2
 70
0
 10
80.458340
 20
161.722066
 30
0.0
 10
79.652358
 20
161.388218
 30
0.0
  0
LWPOLYLINE
  5
16e
100
AcDbEntity
  8
SHEET_VIEW_1_DRAWING_1
 62
7
100
AcDbPolyline
 90
2
 70
0
 10
81.232157
 20
162.124890
 30
0.0
 10
80.458340
 20
161.722066
 30
0.0
  0
LWPOLYLINE
  5
16f
100
AcDbEntity
  8
SHEET_VIEW_1_DRAWING_1
 62
7
100
AcDbPolyline
 90
2
 70
0
 10
81.967921
 20
162.593624
 30
0.0
 10
81.232157
 20
162.124890
 30
0.0
  0
LWPOLYLINE
  5
170
100
AcDbEntity
  8
SHEET_VIEW_1_DRAWING_1
 62
7
100
AcDbPolyline
 90
2
 70
0
 10
82.660033
 20
163.124700
 30
0.0
 10
81.967921
 20
162.593624
 30
0.0
  0
LWPOLYLINE
  5
171
100
AcDbEntity
  8
SHEET_VIEW_1_DRAWING_1
 62
7
100
AcDbPolyline
 90
2
 70
0
 10
83.303225
 20
163.714076
 30
0.0
 10
82.660033
 20
163.124700
 30
0.0
  0
LWPOLYLINE
  5
172
100
AcDbEntity
  8
SHEET_VIEW_1_DRAWING_1
 62
7
100
AcDbPolyline
 90
2
 70
0
 10
83.892601
 20
164.357268
 30
0.0
 10
83.303225
 20
163.714076
 30
0.0
  0
LWPOLYLINE
  5
173
100
AcDbEntity
  8
SHEET_VIEW_1_DRAWING_1
 62
7
100
AcDbPolyline
 90
2
 70
0
 10
84.423678
 20
165.049380
 30
0.0
 10
83.892601
 20
164.357268
 30
0.0
  0
LWPOLYLINE
  5
174
100
AcDbEntity
  8
SHEET_VIEW_1_DRAWING_1
 62
7
100
AcDbPolyline
 90
2
 70
0
 10
84.892411
 20
165.785144
 30
0.0
 10
84.423678
 20
165.049380
 30
0.0
  0
LWPOLYLINE
  5
175
100
AcDbEntity
  8
SHEET_VIEW_1_DRAWING_1
 62
7
100
AcDbPolyline
 90
2
 70
0
 10
85.295235
 20
166.558962
 30
0.0
 10
84.892411
 20
165.785144
 30
0.0
  0
LWPOLYLINE
  5
176
100
AcDbEntity
  8
SHEET_VIEW_1_DRAWING_1
 62
7
100
AcDbPolyline
 90
2
 70
0
 10
85.629083
 20
167.364943
 30
0.0
 10
85.295235
 20
166.558962
 30
0.0
  0
LWPOLYLINE
  5
177
100
AcDbEntity
  8
SHEET_VIEW_1_DRAWING_1
 62
7
100
AcDbPolyline
 90
2
 70
0
 10
86.194104
 20
169.913587
 30
0.0
 10
86.080235
 20
169.048662
 30
0.0
  0
LWPOLYLINE
  5
178
100
AcDbEntity
  8
SHEET_VIEW_1_DRAWING_1
 62
7
100
AcDbPolyline
 90
2
 70
0
 10
85.891415
 20
168.196954
 30
0.0
 10
85.629083
 20
167.364943
 30
0.0
  0
LWPOLYLINE
  5
179
100
AcDbEntity
  8
SHEET_VIEW_1_DRAWING_1
 62
7
100
AcDbPolyline
 90
2
 70
0
 10
86.080235
 20
169.048662
 30
0.0
 10
85.891415
 20
168.196954
 30
0.0
  0
LWPOLYLINE
  5
17a
100
AcDbEntity
  8
SHEET_VIEW_1_DRAWING_1
 62
7
100
AcDbPolyline
 90
2
 70
0
 10
62.575004
 20
149.845178
 30
0.0
 10
64.357815
 20
148.785144
 30
0.0
  0
LWPOLYLINE
  5
17b
100
AcDbEntity
  8
SHEET_VIEW_1_DRAWING_1
 62
7
100
AcDbPolyline
 90
3
 70
0
 10
55.292192
 20
157.127991
 30
0.0
 10
56.496363
 20
155.439186
 30
0.0
 10
57.836382
 20
153.856013
 30
0.0
  0
LWPOLYLINE
  5
17c
100
AcDbEntity
  8
SHEET_VIEW_1_DRAWING_1
 62
7
100
AcDbPolyline
 90
2
 70
0
 10
60.886199
 20
151.049350
 30
0.0
 10
62.575004
 20
149.845178
 30
0.0
  0
LWPOLYLINE
  5
17d
100
AcDbEntity
  8
SHEET_VIEW_1_DRAWING_1
 62
7
100
AcDbPolyline
 90
2
 70
0
 10
59.303026
 20
152.389369
 30
0.0
 10
60.886199
 20
151.049350
 30
0.0
  0
LWPOLYLINE
  5
17e
100
AcDbEntity
  8
SHEET_VIEW_1_DRAWING_1
 62
7
100
AcDbPolyline
 90
2
 70
0
 10
57.836382
 20
153.856013
 30
0.0
 10
59.303026
 20
152.389369
 30
0.0
  0
LWPOLYLINE
  5
17f
100
AcDbEntity
  8
SHEET_VIEW_1_DRAWING_1
 62
7
100
AcDbPolyline
 90
2
 70
0
 10
54.232157
 20
158.910802
 30
0.0
 10
55.292192
 20
157.127991
 30
0.0
  0
LWPOLYLINE
  5
180
100
AcDbEntity
  8
SHEET_VIEW_1_DRAWING_1
 62
7
100
AcDbPolyline
 90
2
 70
0
 10
57.836382
 20
187.714275
 30
0.0
 10
56.496363
 20
186.131102
 30
0.0
  0
LWPOLYLINE
  5
181
100
AcDbEntity
  8
SHEET_VIEW_1_DRAWING_1
 62
7
100
AcDbPolyline
 90
3
 70
0
 10
60.886199
 20
190.520939
 30
0.0
 10
59.303026
 20
189.180919
 30
0.0
 10
57.836382
 20
187.714275
 30
0.0
  0
LWPOLYLINE
  5
182
100
AcDbEntity
  8
SHEET_VIEW_1_DRAWING_1
 62
7
100
AcDbPolyline
 90
3
 70
0
 10
56.496363
 20
186.131102
 30
0.0
 10
55.292192
 20
184.442297
 30
0.0
 10
54.232157
 20
182.659486
 30
0.0
  0
LWPOLYLINE
  5
183
100
AcDbEntity
  8
SHEET_VIEW_1_DRAWING_1
 62
7
100
AcDbPolyline
 90
2
 70
0
 10
62.575004
 20
191.725110
 30
0.0
 10
60.886199
 20
190.520939
 30
0.0
  0
LWPOLYLINE
  5
184
100
AcDbEntity
  8
SHEET_VIEW_1_DRAWING_1
 62
7
100
AcDbPolyline
 90
2
 70
0
 10
64.357815
 20
192.785144
 30
0.0
 10
62.575004
 20
191.725110
 30
0.0
  0
LWPOLYLINE
  5
185
100
AcDbEntity
  8
SHEET_VIEW_1_DRAWING_1
 62
7
100
AcDbPolyline
 90
2
 70
0
 10
89.889311
 20
191.725110
 30
0.0
 10
88.106499
 20
192.785144
 30
0.0
  0
LWPOLYLINE
  5
186
100
AcDbEntity
  8
SHEET_VIEW_1_DRAWING_1
 62
7
100
AcDbPolyline
 90
2
 70
0
 10
91.578115
 20
190.520939
 30
0.0
 10
89.889311
 20
191.725110
 30
0.0
  0
LWPOLYLINE
  5
187
100
AcDbEntity
  8
SHEET_VIEW_1_DRAWING_1
 62
7
100
AcDbPolyline
 90
2
 70
0
 10
93.161288
 20
189.180919
 30
0.0
 10
91.578115
 20
190.520939
 30
0.0
  0
LWPOLYLINE
  5
188
100
AcDbEntity
  8
SHEET_VIEW_1_DRAWING_1
 62
7
100
AcDbPolyline
 90
2
 70
0
 10
97.172123
 20
184.442297
 30
0.0
 10
95.967951
 20
186.131102
 30
0.0
  0
LWPOLYLINE
  5
189
100
AcDbEntity
  8
SHEET_VIEW_1_DRAWING_1
 62
7
100
AcDbPolyline
 90
2
 70
0
 10
98.232157
 20
182.659486
 30
0.0
 10
97.172123
 20
184.442297
 30
0.0
  0
LWPOLYLINE
  5
18a
100
AcDbEntity
  8
SHEET_VIEW_1_DRAWING_1
 62
7
100
AcDbPolyline
 90
2
 70
0
 10
94.627932
 20
187.714275
 30
0.0
 10
93.161288
 20
189.180919
 30
0.0
  0
LWPOLYLINE
  5
18b
100
AcDbEntity
  8
SHEET_VIEW_1_DRAWING_1
 62
7
100
AcDbPolyline
 90
2
 70
0
 10
95.967951
 20
186.131102
 30
0.0
 10
94.627932
 20
187.714275
 30
0.0
  0
LWPOLYLINE
  5
18c
100
AcDbEntity
  8
SHEET_VIEW_1_DRAWING_1
 62
7
100
AcDbPolyline
 90
2
 70
0
 10
70.828055
 20
154.207682
 30
0.0
 10
70.894824
 20
154.046486
 30
0.0
  0
LWPOLYLINE
  5
18d
100
AcDbEntity
  8
SHEET_VIEW_1_DRAWING_1
 62
7
100
AcDbPolyline
 90
2
 70
0
 10
70.747490
 20
154.362446
 30
0.0
 10
70.828055
 20
154.207682
 30
0.0
  0
LWPOLYLINE
  5
18e
100
AcDbEntity
  8
SHEET_VIEW_1_DRAWING_1
 62
7
100
AcDbPolyline
 90
2
 70
0
 10
70.653743
 20
154.509598
 30
0.0
 10
70.747490
 20
154.362446
 30
0.0
  0
LWPOLYLINE
  5
18f
100
AcDbEntity
  8
SHEET_VIEW_1_DRAWING_1
 62
7
100
AcDbPolyline
 90
2
 70
0
 10
70.547528
 20
154.648021
 30
0.0
 10
70.653743
 20
154.509598
 30
0.0
  0
LWPOLYLINE
  5
190
100
AcDbEntity
  8
SHEET_VIEW_1_DRAWING_1
 62
7
100
AcDbPolyline
 90
2
 70
0
 10
70.429653
 20
154.776659
 30
0.0
 10
70.547528
 20
154.648021
 30
0.0
  0
LWPOLYLINE
  5
191
100
AcDbEntity
  8
SHEET_VIEW_1_DRAWING_1
 62
7
100
AcDbPolyline
 90
2
 70
0
 10
67.601225
 20
154.776659
 30
0.0
 10
67.729864
 20
154.894534
 30
0.0
  0
LWPOLYLINE
  5
192
100
AcDbEntity
  8
SHEET_VIEW_1_DRAWING_1
 62
7
100
AcDbPolyline
 90
2
 70
0
 10
67.483350
 20
154.648021
 30
0.0
 10
67.601225
 20
154.776659
 30
0.0
  0
LWPOLYLINE
  5
193
100
AcDbEntity
  8
SHEET_VIEW_1_DRAWING_1
 62
7
100
AcDbPolyline
 90
2
 70
0
 10
67.377135
 20
154.509598
 30
0.0
 10
67.483350
 20
154.648021
 30
0.0
  0
LWPOLYLINE
  5
194
100
AcDbEntity
  8
SHEET_VIEW_1_DRAWING_1
 62
7
100
AcDbPolyline
 90
2
 70
0
 10
67.283388
 20
154.362446
 30
0.0
 10
67.377135
 20
154.509598
 30
0.0
  0
LWPOLYLINE
  5
195
100
AcDbEntity
  8
SHEET_VIEW_1_DRAWING_1
 62
7
100
AcDbPolyline
 90
2
 70
0
 10
67.202823
 20
154.207682
 30
0.0
 10
67.283388
 20
154.362446
 30
0.0
  0
LWPOLYLINE
  5
196
100
AcDbEntity
  8
SHEET_VIEW_1_DRAWING_1
 62
7
100
AcDbPolyline
 90
2
 70
0
 10
67.136054
 20
154.046486
 30
0.0
 10
67.202823
 20
154.207682
 30
0.0
  0
LWPOLYLINE
  5
197
100
AcDbEntity
  8
SHEET_VIEW_1_DRAWING_1
 62
7
100
AcDbPolyline
 90
2
 70
0
 10
67.083587
 20
153.880084
 30
0.0
 10
67.136054
 20
154.046486
 30
0.0
  0
LWPOLYLINE
  5
198
100
AcDbEntity
  8
SHEET_VIEW_1_DRAWING_1
 62
7
100
AcDbPolyline
 90
2
 70
0
 10
67.083587
 20
152.844808
 30
0.0
 10
67.045823
 20
153.015149
 30
0.0
  0
LWPOLYLINE
  5
199
100
AcDbEntity
  8
SHEET_VIEW_1_DRAWING_1
 62
7
100
AcDbPolyline
 90
2
 70
0
 10
67.136054
 20
152.678405
 30
0.0
 10
67.083587
 20
152.844808
 30
0.0
  0
LWPOLYLINE
  5
19a
100
AcDbEntity
  8
SHEET_VIEW_1_DRAWING_1
 62
7
100
AcDbPolyline
 90
2
 70
0
 10
67.202823
 20
152.517209
 30
0.0
 10
67.136054
 20
152.678405
 30
0.0
  0
LWPOLYLINE
  5
19b
100
AcDbEntity
  8
SHEET_VIEW_1_DRAWING_1
 62
7
100
AcDbPolyline
 90
2
 70
0
 10
67.283388
 20
152.362445
 30
0.0
 10
67.202823
 20
152.517209
 30
0.0
  0
LWPOLYLINE
  5
19c
100
AcDbEntity
  8
SHEET_VIEW_1_DRAWING_1
 62
7
100
AcDbPolyline
 90
2
 70
0
 10
67.377135
 20
152.215293
 30
0.0
 10
67.283388
 20
152.362445
 30
0.0
  0
LWPOLYLINE
  5
19d
100
AcDbEntity
  8
SHEET_VIEW_1_DRAWING_1
 62
7
100
AcDbPolyline
 90
2
 70
0
 10
67.483350
 20
152.076870
 30
0.0
 10
67.377135
 20
152.215293
 30
0.0
  0
LWPOLYLINE
  5
19e
100
AcDbEntity
  8
SHEET_VIEW_1_DRAWING_1
 62
7
100
AcDbPolyline
 90
2
 70
0
 10
67.601225
 20
151.948232
 30
0.0
 10
67.483350
 20
152.076870
 30
0.0
  0
LWPOLYLINE
  5
19f
100
AcDbEntity
  8
SHEET_VIEW_1_DRAWING_1
 62
7
100
AcDbPolyline
 90
2
 70
0
 10
67.729864
 20
151.830357
 30
0.0
 10
67.601225
 20
151.948232
 30
0.0
  0
LWPOLYLINE
  5
1a0
100
AcDbEntity
  8
SHEET_VIEW_1_DRAWING_1
 62
7
100
AcDbPolyline
 90
2
 70
0
 10
67.868286
 20
151.724141
 30
0.0
 10
67.729864
 20
151.830357
 30
0.0
  0
LWPOLYLINE
  5
1a1
100
AcDbEntity
  8
SHEET_VIEW_1_DRAWING_1
 62
7
100
AcDbPolyline
 90
2
 70
0
 10
68.015439
 20
151.630395
 30
0.0
 10
67.868286
 20
151.724141
 30
0.0
  0
LWPOLYLINE
  5
1a2
100
AcDbEntity
  8
SHEET_VIEW_1_DRAWING_1
 62
7
100
AcDbPolyline
 90
2
 70
0
 10
68.170203
 20
151.549830
 30
0.0
 10
68.015439
 20
151.630395
 30
0.0
  0
LWPOLYLINE
  5
1a3
100
AcDbEntity
  8
SHEET_VIEW_1_DRAWING_1
 62
7
100
AcDbPolyline
 90
2
 70
0
 10
68.331399
 20
151.483060
 30
0.0
 10
68.170203
 20
151.549830
 30
0.0
  0
LWPOLYLINE
  5
1a4
100
AcDbEntity
  8
SHEET_VIEW_1_DRAWING_1
 62
7
100
AcDbPolyline
 90
2
 70
0
 10
68.497801
 20
151.430594
 30
0.0
 10
68.331399
 20
151.483060
 30
0.0
  0
LWPOLYLINE
  5
1a5
100
AcDbEntity
  8
SHEET_VIEW_1_DRAWING_1
 62
7
100
AcDbPolyline
 90
2
 70
0
 10
68.668143
 20
151.392830
 30
0.0
 10
68.497801
 20
151.430594
 30
0.0
  0
LWPOLYLINE
  5
1a6
100
AcDbEntity
  8
SHEET_VIEW_1_DRAWING_1
 62
7
100
AcDbPolyline
 90
2
 70
0
 10
68.841128
 20
151.370056
 30
0.0
 10
68.668143
 20
151.392830
 30
0.0
  0
LWPOLYLINE
  5
1a7
100
AcDbEntity
  8
SHEET_VIEW_1_DRAWING_1
 62
7
100
AcDbPolyline
 90
2
 70
0
 10
69.015439
 20
151.362445
 30
0.0
 10
68.841128
 20
151.370056
 30
0.0
  0
LWPOLYLINE
  5
1a8
100
AcDbEntity
  8
SHEET_VIEW_1_DRAWING_1
 62
7
100
AcDbPolyline
 90
2
 70
0
 10
69.189750
 20
151.370056
 30
0.0
 10
69.015439
 20
151.362445
 30
0.0
  0
LWPOLYLINE
  5
1a9
100
AcDbEntity
  8
SHEET_VIEW_1_DRAWING_1
 62
7
100
AcDbPolyline
 90
2
 70
0
 10
69.362735
 20
151.392830
 30
0.0
 10
69.189750
 20
151.370056
 30
0.0
  0
LWPOLYLINE
  5
1aa
100
AcDbEntity
  8
SHEET_VIEW_1_DRAWING_1
 62
7
100
AcDbPolyline
 90
2
 70
0
 10
69.533077
 20
151.430594
 30
0.0
 10
69.362735
 20
151.392830
 30
0.0
  0
LWPOLYLINE
  5
1ab
100
AcDbEntity
  8
SHEET_VIEW_1_DRAWING_1
 62
7
100
AcDbPolyline
 90
2
 70
0
 10
67.023050
 20
153.188134
 30
0.0
 10
67.015439
 20
153.362446
 30
0.0
  0
LWPOLYLINE
  5
1ac
100
AcDbEntity
  8
SHEET_VIEW_1_DRAWING_1
 62
7
100
AcDbPolyline
 90
2
 70
0
 10
67.045823
 20
153.015149
 30
0.0
 10
67.023050
 20
153.188134
 30
0.0
  0
LWPOLYLINE
  5
1ad
100
AcDbEntity
  8
SHEET_VIEW_1_DRAWING_1
 62
7
100
AcDbPolyline
 90
4
 70
0
 10
67.015439
 20
153.362446
 30
0.0
 10
67.023050
 20
153.536757
 30
0.0
 10
67.045823
 20
153.709742
 30
0.0
 10
67.083587
 20
153.880084
 30
0.0
  0
LWPOLYLINE
  5
1ae
100
AcDbEntity
  8
SHEET_VIEW_1_DRAWING_1
 62
7
100
AcDbPolyline
 90
2
 70
0
 10
67.729864
 20
154.894534
 30
0.0
 10
67.868286
 20
155.000750
 30
0.0
  0
LWPOLYLINE
  5
1af
100
AcDbEntity
  8
SHEET_VIEW_1_DRAWING_1
 62
7
100
AcDbPolyline
 90
2
 70
0
 10
68.015439
 20
155.094496
 30
0.0
 10
68.170203
 20
155.175061
 30
0.0
  0
LWPOLYLINE
  5
1b0
100
AcDbEntity
  8
SHEET_VIEW_1_DRAWING_1
 62
7
100
AcDbPolyline
 90
2
 70
0
 10
67.868286
 20
155.000750
 30
0.0
 10
68.015439
 20
155.094496
 30
0.0
  0
LWPOLYLINE
  5
1b1
100
AcDbEntity
  8
SHEET_VIEW_1_DRAWING_1
 62
7
100
AcDbPolyline
 90
3
 70
0
 10
68.170203
 20
155.175061
 30
0.0
 10
68.331399
 20
155.241831
 30
0.0
 10
68.497801
 20
155.294297
 30
0.0
  0
LWPOLYLINE
  5
1b2
100
AcDbEntity
  8
SHEET_VIEW_1_DRAWING_1
 62
7
100
AcDbPolyline
 90
2
 70
0
 10
68.668143
 20
155.332061
 30
0.0
 10
68.841128
 20
155.354835
 30
0.0
  0
LWPOLYLINE
  5
1b3
100
AcDbEntity
  8
SHEET_VIEW_1_DRAWING_1
 62
7
100
AcDbPolyline
 90
2
 70
0
 10
68.497801
 20
155.294297
 30
0.0
 10
68.668143
 20
155.332061
 30
0.0
  0
LWPOLYLINE
  5
1b4
100
AcDbEntity
  8
SHEET_VIEW_1_DRAWING_1
 62
7
100
AcDbPolyline
 90
4
 70
0
 10
68.841128
 20
155.354835
 30
0.0
 10
69.015439
 20
155.362446
 30
0.0
 10
69.189750
 20
155.354835
 30
0.0
 10
69.362735
 20
155.332061
 30
0.0
  0
LWPOLYLINE
  5
1b5
100
AcDbEntity
  8
SHEET_VIEW_1_DRAWING_1
 62
7
100
AcDbPolyline
 90
2
 70
0
 10
69.533077
 20
155.294297
 30
0.0
 10
69.699479
 20
155.241831
 30
0.0
  0
LWPOLYLINE
  5
1b6
100
AcDbEntity
  8
SHEET_VIEW_1_DRAWING_1
 62
7
100
AcDbPolyline
 90
2
 70
0
 10
69.362735
 20
155.332061
 30
0.0
 10
69.533077
 20
155.294297
 30
0.0
  0
LWPOLYLINE
  5
1b7
100
AcDbEntity
  8
SHEET_VIEW_1_DRAWING_1
 62
7
100
AcDbPolyline
 90
6
 70
0
 10
69.699479
 20
155.241831
 30
0.0
 10
69.860676
 20
155.175061
 30
0.0
 10
70.015439
 20
155.094496
 30
0.0
 10
70.162592
 20
155.000750
 30
0.0
 10
70.301014
 20
154.894534
 30
0.0
 10
70.429653
 20
154.776659
 30
0.0
  0
LWPOLYLINE
  5
1b8
100
AcDbEntity
  8
SHEET_VIEW_1_DRAWING_1
 62
7
100
AcDbPolyline
 90
2
 70
0
 10
69.699479
 20
151.483060
 30
0.0
 10
69.533077
 20
151.430594
 30
0.0
  0
LWPOLYLINE
  5
1b9
100
AcDbEntity
  8
SHEET_VIEW_1_DRAWING_1
 62
7
100
AcDbPolyline
 90
2
 70
0
 10
69.860676
 20
151.549830
 30
0.0
 10
69.699479
 20
151.483060
 30
0.0
  0
LWPOLYLINE
  5
1ba
100
AcDbEntity
  8
SHEET_VIEW_1_DRAWING_1
 62
7
100
AcDbPolyline
 90
2
 70
0
 10
70.015439
 20
151.630395
 30
0.0
 10
69.860676
 20
151.549830
 30
0.0
  0
LWPOLYLINE
  5
1bb
100
AcDbEntity
  8
SHEET_VIEW_1_DRAWING_1
 62
7
100
AcDbPolyline
 90
2
 70
0
 10
70.162592
 20
151.724141
 30
0.0
 10
70.015439
 20
151.630395
 30
0.0
  0
LWPOLYLINE
  5
1bc
100
AcDbEntity
  8
SHEET_VIEW_1_DRAWING_1
 62
7
100
AcDbPolyline
 90
2
 70
0
 10
70.301014
 20
151.830357
 30
0.0
 10
70.162592
 20
151.724141
 30
0.0
  0
LWPOLYLINE
  5
1bd
100
AcDbEntity
  8
SHEET_VIEW_1_DRAWING_1
 62
7
100
AcDbPolyline
 90
2
 70
0
 10
70.429653
 20
151.948232
 30
0.0
 10
70.301014
 20
151.830357
 30
0.0
  0
LWPOLYLINE
  5
1be
100
AcDbEntity
  8
SHEET_VIEW_1_DRAWING_1
 62
7
100
AcDbPolyline
 90
2
 70
0
 10
70.547528
 20
152.076870
 30
0.0
 10
70.429653
 20
151.948232
 30
0.0
  0
LWPOLYLINE
  5
1bf
100
AcDbEntity
  8
SHEET_VIEW_1_DRAWING_1
 62
7
100
AcDbPolyline
 90
2
 70
0
 10
70.653743
 20
152.215293
 30
0.0
 10
70.547528
 20
152.076870
 30
0.0
  0
LWPOLYLINE
  5
1c0
100
AcDbEntity
  8
SHEET_VIEW_1_DRAWING_1
 62
7
100
AcDbPolyline
 90
2
 70
0
 10
70.747490
 20
152.362445
 30
0.0
 10
70.653743
 20
152.215293
 30
0.0
  0
LWPOLYLINE
  5
1c1
100
AcDbEntity
  8
SHEET_VIEW_1_DRAWING_1
 62
7
100
AcDbPolyline
 90
2
 70
0
 10
70.828055
 20
152.517209
 30
0.0
 10
70.747490
 20
152.362445
 30
0.0
  0
LWPOLYLINE
  5
1c2
100
AcDbEntity
  8
SHEET_VIEW_1_DRAWING_1
 62
7
100
AcDbPolyline
 90
2
 70
0
 10
70.894824
 20
152.678405
 30
0.0
 10
70.828055
 20
152.517209
 30
0.0
  0
LWPOLYLINE
  5
1c3
100
AcDbEntity
  8
SHEET_VIEW_1_DRAWING_1
 62
7
100
AcDbPolyline
 90
2
 70
0
 10
70.947291
 20
152.844808
 30
0.0
 10
70.894824
 20
152.678405
 30
0.0
  0
LWPOLYLINE
  5
1c4
100
AcDbEntity
  8
SHEET_VIEW_1_DRAWING_1
 62
7
100
AcDbPolyline
 90
2
 70
0
 10
70.985055
 20
153.015149
 30
0.0
 10
70.947291
 20
152.844808
 30
0.0
  0
LWPOLYLINE
  5
1c5
100
AcDbEntity
  8
SHEET_VIEW_1_DRAWING_1
 62
7
100
AcDbPolyline
 90
2
 70
0
 10
71.007829
 20
153.188134
 30
0.0
 10
70.985055
 20
153.015149
 30
0.0
  0
LWPOLYLINE
  5
1c6
100
AcDbEntity
  8
SHEET_VIEW_1_DRAWING_1
 62
7
100
AcDbPolyline
 90
2
 70
0
 10
71.015439
 20
153.362446
 30
0.0
 10
71.007829
 20
153.188134
 30
0.0
  0
LWPOLYLINE
  5
1c7
100
AcDbEntity
  8
SHEET_VIEW_1_DRAWING_1
 62
7
100
AcDbPolyline
 90
2
 70
0
 10
71.007829
 20
153.536757
 30
0.0
 10
71.015439
 20
153.362446
 30
0.0
  0
LWPOLYLINE
  5
1c8
100
AcDbEntity
  8
SHEET_VIEW_1_DRAWING_1
 62
7
100
AcDbPolyline
 90
2
 70
0
 10
70.985055
 20
153.709742
 30
0.0
 10
71.007829
 20
153.536757
 30
0.0
  0
LWPOLYLINE
  5
1c9
100
AcDbEntity
  8
SHEET_VIEW_1_DRAWING_1
 62
7
100
AcDbPolyline
 90
2
 70
0
 10
70.947291
 20
153.880084
 30
0.0
 10
70.985055
 20
153.709742
 30
0.0
  0
LWPOLYLINE
  5
1ca
100
AcDbEntity
  8
SHEET_VIEW_1_DRAWING_1
 62
7
100
AcDbPolyline
 90
2
 70
0
 10
70.894824
 20
154.046486
 30
0.0
 10
70.947291
 20
153.880084
 30
0.0
  0
LWPOLYLINE
  5
1cb
100
AcDbEntity
  8
SHEET_VIEW_1_DRAWING_1
 62
7
100
AcDbPolyline
 90
2
 70
0
 10
60.622074
 20
162.723190
 30
0.0
 10
60.541509
 20
162.568426
 30
0.0
  0
LWPOLYLINE
  5
1cc
100
AcDbEntity
  8
SHEET_VIEW_1_DRAWING_1
 62
7
100
AcDbPolyline
 90
2
 70
0
 10
56.930073
 20
164.252466
 30
0.0
 10
56.996843
 20
164.413663
 30
0.0
  0
LWPOLYLINE
  5
1cd
100
AcDbEntity
  8
SHEET_VIEW_1_DRAWING_1
 62
7
100
AcDbPolyline
 90
2
 70
0
 10
56.809459
 20
163.568426
 30
0.0
 10
56.817069
 20
163.742738
 30
0.0
  0
LWPOLYLINE
  5
1ce
100
AcDbEntity
  8
SHEET_VIEW_1_DRAWING_1
 62
7
100
AcDbPolyline
 90
2
 70
0
 10
56.877607
 20
163.050788
 30
0.0
 10
56.839843
 20
163.221130
 30
0.0
  0
LWPOLYLINE
  5
1cf
100
AcDbEntity
  8
SHEET_VIEW_1_DRAWING_1
 62
7
100
AcDbPolyline
 90
2
 70
0
 10
56.930073
 20
162.884386
 30
0.0
 10
56.877607
 20
163.050788
 30
0.0
  0
LWPOLYLINE
  5
1d0
100
AcDbEntity
  8
SHEET_VIEW_1_DRAWING_1
 62
7
100
AcDbPolyline
 90
2
 70
0
 10
56.996843
 20
162.723190
 30
0.0
 10
56.930073
 20
162.884386
 30
0.0
  0
LWPOLYLINE
  5
1d1
100
AcDbEntity
  8
SHEET_VIEW_1_DRAWING_1
 62
7
100
AcDbPolyline
 90
2
 70
0
 10
57.077408
 20
162.568426
 30
0.0
 10
56.996843
 20
162.723190
 30
0.0
  0
LWPOLYLINE
  5
1d2
100
AcDbEntity
  8
SHEET_VIEW_1_DRAWING_1
 62
7
100
AcDbPolyline
 90
2
 70
0
 10
57.171155
 20
162.421273
 30
0.0
 10
57.077408
 20
162.568426
 30
0.0
  0
LWPOLYLINE
  5
1d3
100
AcDbEntity
  8
SHEET_VIEW_1_DRAWING_1
 62
7
100
AcDbPolyline
 90
2
 70
0
 10
57.277370
 20
162.282851
 30
0.0
 10
57.171155
 20
162.421273
 30
0.0
  0
LWPOLYLINE
  5
1d4
100
AcDbEntity
  8
SHEET_VIEW_1_DRAWING_1
 62
7
100
AcDbPolyline
 90
2
 70
0
 10
57.395245
 20
162.154213
 30
0.0
 10
57.277370
 20
162.282851
 30
0.0
  0
LWPOLYLINE
  5
1d5
100
AcDbEntity
  8
SHEET_VIEW_1_DRAWING_1
 62
7
100
AcDbPolyline
 90
2
 70
0
 10
57.523883
 20
162.036337
 30
0.0
 10
57.395245
 20
162.154213
 30
0.0
  0
LWPOLYLINE
  5
1d6
100
AcDbEntity
  8
SHEET_VIEW_1_DRAWING_1
 62
7
100
AcDbPolyline
 90
2
 70
0
 10
57.662306
 20
161.930122
 30
0.0
 10
57.523883
 20
162.036337
 30
0.0
  0
LWPOLYLINE
  5
1d7
100
AcDbEntity
  8
SHEET_VIEW_1_DRAWING_1
 62
7
100
AcDbPolyline
 90
2
 70
0
 10
57.809459
 20
161.836375
 30
0.0
 10
57.662306
 20
161.930122
 30
0.0
  0
LWPOLYLINE
  5
1d8
100
AcDbEntity
  8
SHEET_VIEW_1_DRAWING_1
 62
7
100
AcDbPolyline
 90
2
 70
0
 10
57.964222
 20
161.755811
 30
0.0
 10
57.809459
 20
161.836375
 30
0.0
  0
LWPOLYLINE
  5
1d9
100
AcDbEntity
  8
SHEET_VIEW_1_DRAWING_1
 62
7
100
AcDbPolyline
 90
2
 70
0
 10
58.125418
 20
161.689041
 30
0.0
 10
57.964222
 20
161.755811
 30
0.0
  0
LWPOLYLINE
  5
1da
100
AcDbEntity
  8
SHEET_VIEW_1_DRAWING_1
 62
7
100
AcDbPolyline
 90
2
 70
0
 10
58.291820
 20
161.636574
 30
0.0
 10
58.125418
 20
161.689041
 30
0.0
  0
LWPOLYLINE
  5
1db
100
AcDbEntity
  8
SHEET_VIEW_1_DRAWING_1
 62
7
100
AcDbPolyline
 90
2
 70
0
 10
58.462162
 20
161.598811
 30
0.0
 10
58.291820
 20
161.636574
 30
0.0
  0
LWPOLYLINE
  5
1dc
100
AcDbEntity
  8
SHEET_VIEW_1_DRAWING_1
 62
7
100
AcDbPolyline
 90
2
 70
0
 10
58.635147
 20
161.576037
 30
0.0
 10
58.462162
 20
161.598811
 30
0.0
  0
LWPOLYLINE
  5
1dd
100
AcDbEntity
  8
SHEET_VIEW_1_DRAWING_1
 62
7
100
AcDbPolyline
 90
2
 70
0
 10
58.809458
 20
161.568426
 30
0.0
 10
58.635147
 20
161.576037
 30
0.0
  0
LWPOLYLINE
  5
1de
100
AcDbEntity
  8
SHEET_VIEW_1_DRAWING_1
 62
7
100
AcDbPolyline
 90
2
 70
0
 10
58.983770
 20
161.576037
 30
0.0
 10
58.809458
 20
161.568426
 30
0.0
  0
LWPOLYLINE
  5
1df
100
AcDbEntity
  8
SHEET_VIEW_1_DRAWING_1
 62
7
100
AcDbPolyline
 90
2
 70
0
 10
59.156755
 20
161.598811
 30
0.0
 10
58.983770
 20
161.576037
 30
0.0
  0
LWPOLYLINE
  5
1e0
100
AcDbEntity
  8
SHEET_VIEW_1_DRAWING_1
 62
7
100
AcDbPolyline
 90
2
 70
0
 10
59.327097
 20
161.636574
 30
0.0
 10
59.156755
 20
161.598811
 30
0.0
  0
LWPOLYLINE
  5
1e1
100
AcDbEntity
  8
SHEET_VIEW_1_DRAWING_1
 62
7
100
AcDbPolyline
 90
2
 70
0
 10
59.493499
 20
161.689041
 30
0.0
 10
59.327097
 20
161.636574
 30
0.0
  0
LWPOLYLINE
  5
1e2
100
AcDbEntity
  8
SHEET_VIEW_1_DRAWING_1
 62
7
100
AcDbPolyline
 90
2
 70
0
 10
59.654695
 20
161.755811
 30
0.0
 10
59.493499
 20
161.689041
 30
0.0
  0
LWPOLYLINE
  5
1e3
100
AcDbEntity
  8
SHEET_VIEW_1_DRAWING_1
 62
7
100
AcDbPolyline
 90
2
 70
0
 10
59.809458
 20
161.836375
 30
0.0
 10
59.654695
 20
161.755811
 30
0.0
  0
LWPOLYLINE
  5
1e4
100
AcDbEntity
  8
SHEET_VIEW_1_DRAWING_1
 62
7
100
AcDbPolyline
 90
2
 70
0
 10
59.956611
 20
161.930122
 30
0.0
 10
59.809458
 20
161.836375
 30
0.0
  0
LWPOLYLINE
  5
1e5
100
AcDbEntity
  8
SHEET_VIEW_1_DRAWING_1
 62
7
100
AcDbPolyline
 90
2
 70
0
 10
60.095034
 20
162.036337
 30
0.0
 10
59.956611
 20
161.930122
 30
0.0
  0
LWPOLYLINE
  5
1e6
100
AcDbEntity
  8
SHEET_VIEW_1_DRAWING_1
 62
7
100
AcDbPolyline
 90
2
 70
0
 10
60.223672
 20
162.154213
 30
0.0
 10
60.095034
 20
162.036337
 30
0.0
  0
LWPOLYLINE
  5
1e7
100
AcDbEntity
  8
SHEET_VIEW_1_DRAWING_1
 62
7
100
AcDbPolyline
 90
2
 70
0
 10
60.447763
 20
162.421273
 30
0.0
 10
60.341547
 20
162.282851
 30
0.0
  0
LWPOLYLINE
  5
1e8
100
AcDbEntity
  8
SHEET_VIEW_1_DRAWING_1
 62
7
100
AcDbPolyline
 90
2
 70
0
 10
60.541509
 20
162.568426
 30
0.0
 10
60.447763
 20
162.421273
 30
0.0
  0
LWPOLYLINE
  5
1e9
100
AcDbEntity
  8
SHEET_VIEW_1_DRAWING_1
 62
7
100
AcDbPolyline
 90
2
 70
0
 10
60.341547
 20
162.282851
 30
0.0
 10
60.223672
 20
162.154213
 30
0.0
  0
LWPOLYLINE
  5
1ea
100
AcDbEntity
  8
SHEET_VIEW_1_DRAWING_1
 62
7
100
AcDbPolyline
 90
17
 70
0
 10
56.996843
 20
164.413663
 30
0.0
 10
57.077408
 20
164.568426
 30
0.0
 10
57.171155
 20
164.715579
 30
0.0
 10
57.277370
 20
164.854001
 30
0.0
 10
57.395245
 20
164.982640
 30
0.0
 10
57.523883
 20
165.100515
 30
0.0
 10
57.662306
 20
165.206730
 30
0.0
 10
57.809459
 20
165.300477
 30
0.0
 10
57.964222
 20
165.381042
 30
0.0
 10
58.125418
 20
165.447811
 30
0.0
 10
58.291820
 20
165.500278
 30
0.0
 10
58.462162
 20
165.538042
 30
0.0
 10
58.635147
 20
165.560815
 30
0.0
 10
58.809458
 20
165.568426
 30
0.0
 10
58.983770
 20
165.560815
 30
0.0
 10
59.156755
 20
165.538042
 30
0.0
 10
59.327097
 20
165.500278
 30
0.0
  0
LWPOLYLINE
  5
1eb
100
AcDbEntity
  8
SHEET_VIEW_1_DRAWING_1
 62
7
100
AcDbPolyline
 90
2
 70
0
 10
59.654695
 20
165.381042
 30
0.0
 10
59.809458
 20
165.300477
 30
0.0
  0
LWPOLYLINE
  5
1ec
100
AcDbEntity
  8
SHEET_VIEW_1_DRAWING_1
 62
7
100
AcDbPolyline
 90
2
 70
0
 10
59.493499
 20
165.447811
 30
0.0
 10
59.654695
 20
165.381042
 30
0.0
  0
LWPOLYLINE
  5
1ed
100
AcDbEntity
  8
SHEET_VIEW_1_DRAWING_1
 62
7
100
AcDbPolyline
 90
2
 70
0
 10
59.327097
 20
165.500278
 30
0.0
 10
59.493499
 20
165.447811
 30
0.0
  0
LWPOLYLINE
  5
1ee
100
AcDbEntity
  8
SHEET_VIEW_1_DRAWING_1
 62
7
100
AcDbPolyline
 90
2
 70
0
 10
56.817069
 20
163.394114
 30
0.0
 10
56.809459
 20
163.568426
 30
0.0
  0
LWPOLYLINE
  5
1ef
100
AcDbEntity
  8
SHEET_VIEW_1_DRAWING_1
 62
7
100
AcDbPolyline
 90
2
 70
0
 10
56.839843
 20
163.221130
 30
0.0
 10
56.817069
 20
163.394114
 30
0.0
  0
LWPOLYLINE
  5
1f0
100
AcDbEntity
  8
SHEET_VIEW_1_DRAWING_1
 62
7
100
AcDbPolyline
 90
4
 70
0
 10
56.817069
 20
163.742738
 30
0.0
 10
56.839843
 20
163.915722
 30
0.0
 10
56.877607
 20
164.086064
 30
0.0
 10
56.930073
 20
164.252466
 30
0.0
  0
LWPOLYLINE
  5
1f1
100
AcDbEntity
  8
SHEET_VIEW_1_DRAWING_1
 62
7
100
AcDbPolyline
 90
2
 70
0
 10
59.956611
 20
165.206730
 30
0.0
 10
60.095034
 20
165.100515
 30
0.0
  0
LWPOLYLINE
  5
1f2
100
AcDbEntity
  8
SHEET_VIEW_1_DRAWING_1
 62
7
100
AcDbPolyline
 90
2
 70
0
 10
59.809458
 20
165.300477
 30
0.0
 10
59.956611
 20
165.206730
 30
0.0
  0
LWPOLYLINE
  5
1f3
100
AcDbEntity
  8
SHEET_VIEW_1_DRAWING_1
 62
7
100
AcDbPolyline
 90
3
 70
0
 10
60.095034
 20
165.100515
 30
0.0
 10
60.223672
 20
164.982640
 30
0.0
 10
60.341547
 20
164.854001
 30
0.0
  0
LWPOLYLINE
  5
1f4
100
AcDbEntity
  8
SHEET_VIEW_1_DRAWING_1
 62
7
100
AcDbPolyline
 90
2
 70
0
 10
60.447763
 20
164.715579
 30
0.0
 10
60.541509
 20
164.568426
 30
0.0
  0
LWPOLYLINE
  5
1f5
100
AcDbEntity
  8
SHEET_VIEW_1_DRAWING_1
 62
7
100
AcDbPolyline
 90
2
 70
0
 10
60.341547
 20
164.854001
 30
0.0
 10
60.447763
 20
164.715579
 30
0.0
  0
LWPOLYLINE
  5
1f6
100
AcDbEntity
  8
SHEET_VIEW_1_DRAWING_1
 62
7
100
AcDbPolyline
 90
3
 70
0
 10
60.541509
 20
164.568426
 30
0.0
 10
60.622074
 20
164.413663
 30
0.0
 10
60.688844
 20
164.252466
 30
0.0
  0
LWPOLYLINE
  5
1f7
100
AcDbEntity
  8
SHEET_VIEW_1_DRAWING_1
 62
7
100
AcDbPolyline
 90
2
 70
0
 10
60.741310
 20
164.086064
 30
0.0
 10
60.779074
 20
163.915722
 30
0.0
  0
LWPOLYLINE
  5
1f8
100
AcDbEntity
  8
SHEET_VIEW_1_DRAWING_1
 62
7
100
AcDbPolyline
 90
2
 70
0
 10
60.688844
 20
164.252466
 30
0.0
 10
60.741310
 20
164.086064
 30
0.0
  0
LWPOLYLINE
  5
1f9
100
AcDbEntity
  8
SHEET_VIEW_1_DRAWING_1
 62
7
100
AcDbPolyline
 90
2
 70
0
 10
60.779074
 20
163.915722
 30
0.0
 10
60.801848
 20
163.742738
 30
0.0
  0
LWPOLYLINE
  5
1fa
100
AcDbEntity
  8
SHEET_VIEW_1_DRAWING_1
 62
7
100
AcDbPolyline
 90
2
 70
0
 10
60.809458
 20
163.568426
 30
0.0
 10
60.801848
 20
163.394114
 30
0.0
  0
LWPOLYLINE
  5
1fb
100
AcDbEntity
  8
SHEET_VIEW_1_DRAWING_1
 62
7
100
AcDbPolyline
 90
2
 70
0
 10
60.801848
 20
163.742738
 30
0.0
 10
60.809458
 20
163.568426
 30
0.0
  0
LWPOLYLINE
  5
1fc
100
AcDbEntity
  8
SHEET_VIEW_1_DRAWING_1
 62
7
100
AcDbPolyline
 90
3
 70
0
 10
60.801848
 20
163.394114
 30
0.0
 10
60.779074
 20
163.221130
 30
0.0
 10
60.741310
 20
163.050788
 30
0.0
  0
LWPOLYLINE
  5
1fd
100
AcDbEntity
  8
SHEET_VIEW_1_DRAWING_1
 62
7
100
AcDbPolyline
 90
2
 70
0
 10
60.688844
 20
162.884386
 30
0.0
 10
60.622074
 20
162.723190
 30
0.0
  0
LWPOLYLINE
  5
1fe
100
AcDbEntity
  8
SHEET_VIEW_1_DRAWING_1
 62
7
100
AcDbPolyline
 90
2
 70
0
 10
60.741310
 20
163.050788
 30
0.0
 10
60.688844
 20
162.884386
 30
0.0
  0
LWPOLYLINE
  5
1ff
100
AcDbEntity
  8
SHEET_VIEW_1_DRAWING_1
 62
7
100
AcDbPolyline
 90
2
 70
0
 10
58.983770
 20
176.009473
 30
0.0
 10
58.809458
 20
176.001862
 30
0.0
  0
LWPOLYLINE
  5
200
100
AcDbEntity
  8
SHEET_VIEW_1_DRAWING_1
 62
7
100
AcDbPolyline
 90
2
 70
0
 10
59.156755
 20
176.032247
 30
0.0
 10
58.983770
 20
176.009473
 30
0.0
  0
LWPOLYLINE
  5
201
100
AcDbEntity
  8
SHEET_VIEW_1_DRAWING_1
 62
7
100
AcDbPolyline
 90
2
 70
0
 10
59.493499
 20
176.122477
 30
0.0
 10
59.327097
 20
176.070010
 30
0.0
  0
LWPOLYLINE
  5
202
100
AcDbEntity
  8
SHEET_VIEW_1_DRAWING_1
 62
7
100
AcDbPolyline
 90
2
 70
0
 10
60.447763
 20
176.854709
 30
0.0
 10
60.341547
 20
176.716287
 30
0.0
  0
LWPOLYLINE
  5
203
100
AcDbEntity
  8
SHEET_VIEW_1_DRAWING_1
 62
7
100
AcDbPolyline
 90
2
 70
0
 10
60.541509
 20
177.001862
 30
0.0
 10
60.447763
 20
176.854709
 30
0.0
  0
LWPOLYLINE
  5
204
100
AcDbEntity
  8
SHEET_VIEW_1_DRAWING_1
 62
7
100
AcDbPolyline
 90
2
 70
0
 10
60.622074
 20
177.156626
 30
0.0
 10
60.541509
 20
177.001862
 30
0.0
  0
LWPOLYLINE
  5
205
100
AcDbEntity
  8
SHEET_VIEW_1_DRAWING_1
 62
7
100
AcDbPolyline
 90
2
 70
0
 10
60.688844
 20
177.317822
 30
0.0
 10
60.622074
 20
177.156626
 30
0.0
  0
LWPOLYLINE
  5
206
100
AcDbEntity
  8
SHEET_VIEW_1_DRAWING_1
 62
7
100
AcDbPolyline
 90
2
 70
0
 10
60.741310
 20
177.484224
 30
0.0
 10
60.688844
 20
177.317822
 30
0.0
  0
LWPOLYLINE
  5
207
100
AcDbEntity
  8
SHEET_VIEW_1_DRAWING_1
 62
7
100
AcDbPolyline
 90
2
 70
0
 10
60.779074
 20
177.654566
 30
0.0
 10
60.741310
 20
177.484224
 30
0.0
  0
LWPOLYLINE
  5
208
100
AcDbEntity
  8
SHEET_VIEW_1_DRAWING_1
 62
7
100
AcDbPolyline
 90
2
 70
0
 10
60.801848
 20
177.827551
 30
0.0
 10
60.779074
 20
177.654566
 30
0.0
  0
LWPOLYLINE
  5
209
100
AcDbEntity
  8
SHEET_VIEW_1_DRAWING_1
 62
7
100
AcDbPolyline
 90
2
 70
0
 10
60.801848
 20
178.176174
 30
0.0
 10
60.809458
 20
178.001862
 30
0.0
  0
LWPOLYLINE
  5
20a
100
AcDbEntity
  8
SHEET_VIEW_1_DRAWING_1
 62
7
100
AcDbPolyline
 90
2
 70
0
 10
60.447763
 20
179.149015
 30
0.0
 10
60.541509
 20
179.001862
 30
0.0
  0
LWPOLYLINE
  5
20b
100
AcDbEntity
  8
SHEET_VIEW_1_DRAWING_1
 62
7
100
AcDbPolyline
 90
2
 70
0
 10
60.341547
 20
179.287437
 30
0.0
 10
60.447763
 20
179.149015
 30
0.0
  0
LWPOLYLINE
  5
20c
100
AcDbEntity
  8
SHEET_VIEW_1_DRAWING_1
 62
7
100
AcDbPolyline
 90
2
 70
0
 10
60.223672
 20
179.416076
 30
0.0
 10
60.341547
 20
179.287437
 30
0.0
  0
LWPOLYLINE
  5
20d
100
AcDbEntity
  8
SHEET_VIEW_1_DRAWING_1
 62
7
100
AcDbPolyline
 90
2
 70
0
 10
60.095034
 20
179.533951
 30
0.0
 10
60.223672
 20
179.416076
 30
0.0
  0
LWPOLYLINE
  5
20e
100
AcDbEntity
  8
SHEET_VIEW_1_DRAWING_1
 62
7
100
AcDbPolyline
 90
2
 70
0
 10
59.956611
 20
179.640166
 30
0.0
 10
60.095034
 20
179.533951
 30
0.0
  0
LWPOLYLINE
  5
20f
100
AcDbEntity
  8
SHEET_VIEW_1_DRAWING_1
 62
7
100
AcDbPolyline
 90
2
 70
0
 10
59.809458
 20
179.733913
 30
0.0
 10
59.956611
 20
179.640166
 30
0.0
  0
LWPOLYLINE
  5
210
100
AcDbEntity
  8
SHEET_VIEW_1_DRAWING_1
 62
7
100
AcDbPolyline
 90
2
 70
0
 10
59.654695
 20
179.814478
 30
0.0
 10
59.809458
 20
179.733913
 30
0.0
  0
LWPOLYLINE
  5
211
100
AcDbEntity
  8
SHEET_VIEW_1_DRAWING_1
 62
7
100
AcDbPolyline
 90
2
 70
0
 10
59.493499
 20
179.881247
 30
0.0
 10
59.654695
 20
179.814478
 30
0.0
  0
LWPOLYLINE
  5
212
100
AcDbEntity
  8
SHEET_VIEW_1_DRAWING_1
 62
7
100
AcDbPolyline
 90
2
 70
0
 10
59.327097
 20
179.933714
 30
0.0
 10
59.493499
 20
179.881247
 30
0.0
  0
LWPOLYLINE
  5
213
100
AcDbEntity
  8
SHEET_VIEW_1_DRAWING_1
 62
7
100
AcDbPolyline
 90
2
 70
0
 10
59.156755
 20
179.971478
 30
0.0
 10
59.327097
 20
179.933714
 30
0.0
  0
LWPOLYLINE
  5
214
100
AcDbEntity
  8
SHEET_VIEW_1_DRAWING_1
 62
7
100
AcDbPolyline
 90
2
 70
0
 10
58.983770
 20
179.994251
 30
0.0
 10
59.156755
 20
179.971478
 30
0.0
  0
LWPOLYLINE
  5
215
100
AcDbEntity
  8
SHEET_VIEW_1_DRAWING_1
 62
7
100
AcDbPolyline
 90
2
 70
0
 10
58.809458
 20
180.001862
 30
0.0
 10
58.983770
 20
179.994251
 30
0.0
  0
LWPOLYLINE
  5
216
100
AcDbEntity
  8
SHEET_VIEW_1_DRAWING_1
 62
7
100
AcDbPolyline
 90
2
 70
0
 10
58.635147
 20
179.994251
 30
0.0
 10
58.809458
 20
180.001862
 30
0.0
  0
LWPOLYLINE
  5
217
100
AcDbEntity
  8
SHEET_VIEW_1_DRAWING_1
 62
7
100
AcDbPolyline
 90
2
 70
0
 10
58.462162
 20
179.971478
 30
0.0
 10
58.635147
 20
179.994251
 30
0.0
  0
LWPOLYLINE
  5
218
100
AcDbEntity
  8
SHEET_VIEW_1_DRAWING_1
 62
7
100
AcDbPolyline
 90
2
 70
0
 10
58.291820
 20
179.933714
 30
0.0
 10
58.462162
 20
179.971478
 30
0.0
  0
LWPOLYLINE
  5
219
100
AcDbEntity
  8
SHEET_VIEW_1_DRAWING_1
 62
7
100
AcDbPolyline
 90
2
 70
0
 10
58.125418
 20
179.881247
 30
0.0
 10
58.291820
 20
179.933714
 30
0.0
  0
LWPOLYLINE
  5
21a
100
AcDbEntity
  8
SHEET_VIEW_1_DRAWING_1
 62
7
100
AcDbPolyline
 90
2
 70
0
 10
57.964222
 20
179.814478
 30
0.0
 10
58.125418
 20
179.881247
 30
0.0
  0
LWPOLYLINE
  5
21b
100
AcDbEntity
  8
SHEET_VIEW_1_DRAWING_1
 62
7
100
AcDbPolyline
 90
2
 70
0
 10
57.809459
 20
179.733913
 30
0.0
 10
57.964222
 20
179.814478
 30
0.0
  0
LWPOLYLINE
  5
21c
100
AcDbEntity
  8
SHEET_VIEW_1_DRAWING_1
 62
7
100
AcDbPolyline
 90
2
 70
0
 10
57.662306
 20
179.640166
 30
0.0
 10
57.809459
 20
179.733913
 30
0.0
  0
LWPOLYLINE
  5
21d
100
AcDbEntity
  8
SHEET_VIEW_1_DRAWING_1
 62
7
100
AcDbPolyline
 90
2
 70
0
 10
57.523883
 20
179.533951
 30
0.0
 10
57.662306
 20
179.640166
 30
0.0
  0
LWPOLYLINE
  5
21e
100
AcDbEntity
  8
SHEET_VIEW_1_DRAWING_1
 62
7
100
AcDbPolyline
 90
2
 70
0
 10
57.395245
 20
179.416076
 30
0.0
 10
57.523883
 20
179.533951
 30
0.0
  0
LWPOLYLINE
  5
21f
100
AcDbEntity
  8
SHEET_VIEW_1_DRAWING_1
 62
7
100
AcDbPolyline
 90
2
 70
0
 10
57.277370
 20
179.287437
 30
0.0
 10
57.395245
 20
179.416076
 30
0.0
  0
LWPOLYLINE
  5
220
100
AcDbEntity
  8
SHEET_VIEW_1_DRAWING_1
 62
7
100
AcDbPolyline
 90
2
 70
0
 10
57.171155
 20
179.149015
 30
0.0
 10
57.277370
 20
179.287437
 30
0.0
  0
LWPOLYLINE
  5
221
100
AcDbEntity
  8
SHEET_VIEW_1_DRAWING_1
 62
7
100
AcDbPolyline
 90
2
 70
0
 10
57.077408
 20
179.001862
 30
0.0
 10
57.171155
 20
179.149015
 30
0.0
  0
LWPOLYLINE
  5
222
100
AcDbEntity
  8
SHEET_VIEW_1_DRAWING_1
 62
7
100
AcDbPolyline
 90
2
 70
0
 10
56.996843
 20
178.847099
 30
0.0
 10
57.077408
 20
179.001862
 30
0.0
  0
LWPOLYLINE
  5
223
100
AcDbEntity
  8
SHEET_VIEW_1_DRAWING_1
 62
7
100
AcDbPolyline
 90
2
 70
0
 10
56.930073
 20
178.685903
 30
0.0
 10
56.996843
 20
178.847099
 30
0.0
  0
LWPOLYLINE
  5
224
100
AcDbEntity
  8
SHEET_VIEW_1_DRAWING_1
 62
7
100
AcDbPolyline
 90
2
 70
0
 10
56.877607
 20
178.519500
 30
0.0
 10
56.930073
 20
178.685903
 30
0.0
  0
LWPOLYLINE
  5
225
100
AcDbEntity
  8
SHEET_VIEW_1_DRAWING_1
 62
7
100
AcDbPolyline
 90
2
 70
0
 10
56.839843
 20
178.349158
 30
0.0
 10
56.877607
 20
178.519500
 30
0.0
  0
LWPOLYLINE
  5
226
100
AcDbEntity
  8
SHEET_VIEW_1_DRAWING_1
 62
7
100
AcDbPolyline
 90
2
 70
0
 10
56.817069
 20
178.176174
 30
0.0
 10
56.839843
 20
178.349158
 30
0.0
  0
LWPOLYLINE
  5
227
100
AcDbEntity
  8
SHEET_VIEW_1_DRAWING_1
 62
7
100
AcDbPolyline
 90
2
 70
0
 10
56.809459
 20
178.001862
 30
0.0
 10
56.817069
 20
178.176174
 30
0.0
  0
LWPOLYLINE
  5
228
100
AcDbEntity
  8
SHEET_VIEW_1_DRAWING_1
 62
7
100
AcDbPolyline
 90
2
 70
0
 10
56.817069
 20
177.827551
 30
0.0
 10
56.809459
 20
178.001862
 30
0.0
  0
LWPOLYLINE
  5
229
100
AcDbEntity
  8
SHEET_VIEW_1_DRAWING_1
 62
7
100
AcDbPolyline
 90
2
 70
0
 10
56.839843
 20
177.654566
 30
0.0
 10
56.817069
 20
177.827551
 30
0.0
  0
LWPOLYLINE
  5
22a
100
AcDbEntity
  8
SHEET_VIEW_1_DRAWING_1
 62
7
100
AcDbPolyline
 90
2
 70
0
 10
56.877607
 20
177.484224
 30
0.0
 10
56.839843
 20
177.654566
 30
0.0
  0
LWPOLYLINE
  5
22b
100
AcDbEntity
  8
SHEET_VIEW_1_DRAWING_1
 62
7
100
AcDbPolyline
 90
2
 70
0
 10
56.930073
 20
177.317822
 30
0.0
 10
56.877607
 20
177.484224
 30
0.0
  0
LWPOLYLINE
  5
22c
100
AcDbEntity
  8
SHEET_VIEW_1_DRAWING_1
 62
7
100
AcDbPolyline
 90
2
 70
0
 10
56.996843
 20
177.156626
 30
0.0
 10
56.930073
 20
177.317822
 30
0.0
  0
LWPOLYLINE
  5
22d
100
AcDbEntity
  8
SHEET_VIEW_1_DRAWING_1
 62
7
100
AcDbPolyline
 90
2
 70
0
 10
57.077408
 20
177.001862
 30
0.0
 10
56.996843
 20
177.156626
 30
0.0
  0
LWPOLYLINE
  5
22e
100
AcDbEntity
  8
SHEET_VIEW_1_DRAWING_1
 62
7
100
AcDbPolyline
 90
2
 70
0
 10
57.171155
 20
176.854709
 30
0.0
 10
57.077408
 20
177.001862
 30
0.0
  0
LWPOLYLINE
  5
22f
100
AcDbEntity
  8
SHEET_VIEW_1_DRAWING_1
 62
7
100
AcDbPolyline
 90
2
 70
0
 10
57.277370
 20
176.716287
 30
0.0
 10
57.171155
 20
176.854709
 30
0.0
  0
LWPOLYLINE
  5
230
100
AcDbEntity
  8
SHEET_VIEW_1_DRAWING_1
 62
7
100
AcDbPolyline
 90
2
 70
0
 10
57.395245
 20
176.587649
 30
0.0
 10
57.277370
 20
176.716287
 30
0.0
  0
LWPOLYLINE
  5
231
100
AcDbEntity
  8
SHEET_VIEW_1_DRAWING_1
 62
7
100
AcDbPolyline
 90
2
 70
0
 10
57.523883
 20
176.469773
 30
0.0
 10
57.395245
 20
176.587649
 30
0.0
  0
LWPOLYLINE
  5
232
100
AcDbEntity
  8
SHEET_VIEW_1_DRAWING_1
 62
7
100
AcDbPolyline
 90
2
 70
0
 10
57.662306
 20
176.363558
 30
0.0
 10
57.523883
 20
176.469773
 30
0.0
  0
LWPOLYLINE
  5
233
100
AcDbEntity
  8
SHEET_VIEW_1_DRAWING_1
 62
7
100
AcDbPolyline
 90
2
 70
0
 10
57.809459
 20
176.269811
 30
0.0
 10
57.662306
 20
176.363558
 30
0.0
  0
LWPOLYLINE
  5
234
100
AcDbEntity
  8
SHEET_VIEW_1_DRAWING_1
 62
7
100
AcDbPolyline
 90
2
 70
0
 10
57.964222
 20
176.189247
 30
0.0
 10
57.809459
 20
176.269811
 30
0.0
  0
LWPOLYLINE
  5
235
100
AcDbEntity
  8
SHEET_VIEW_1_DRAWING_1
 62
7
100
AcDbPolyline
 90
2
 70
0
 10
58.125418
 20
176.122477
 30
0.0
 10
57.964222
 20
176.189247
 30
0.0
  0
LWPOLYLINE
  5
236
100
AcDbEntity
  8
SHEET_VIEW_1_DRAWING_1
 62
7
100
AcDbPolyline
 90
2
 70
0
 10
58.291820
 20
176.070010
 30
0.0
 10
58.125418
 20
176.122477
 30
0.0
  0
LWPOLYLINE
  5
237
100
AcDbEntity
  8
SHEET_VIEW_1_DRAWING_1
 62
7
100
AcDbPolyline
 90
2
 70
0
 10
58.462162
 20
176.032247
 30
0.0
 10
58.291820
 20
176.070010
 30
0.0
  0
LWPOLYLINE
  5
238
100
AcDbEntity
  8
SHEET_VIEW_1_DRAWING_1
 62
7
100
AcDbPolyline
 90
2
 70
0
 10
58.635147
 20
176.009473
 30
0.0
 10
58.462162
 20
176.032247
 30
0.0
  0
LWPOLYLINE
  5
239
100
AcDbEntity
  8
SHEET_VIEW_1_DRAWING_1
 62
7
100
AcDbPolyline
 90
2
 70
0
 10
58.809458
 20
176.001862
 30
0.0
 10
58.635147
 20
176.009473
 30
0.0
  0
LWPOLYLINE
  5
23a
100
AcDbEntity
  8
SHEET_VIEW_1_DRAWING_1
 62
7
100
AcDbPolyline
 90
2
 70
0
 10
60.622074
 20
178.847099
 30
0.0
 10
60.688844
 20
178.685903
 30
0.0
  0
LWPOLYLINE
  5
23b
100
AcDbEntity
  8
SHEET_VIEW_1_DRAWING_1
 62
7
100
AcDbPolyline
 90
2
 70
0
 10
60.541509
 20
179.001862
 30
0.0
 10
60.622074
 20
178.847099
 30
0.0
  0
LWPOLYLINE
  5
23c
100
AcDbEntity
  8
SHEET_VIEW_1_DRAWING_1
 62
7
100
AcDbPolyline
 90
2
 70
0
 10
60.688844
 20
178.685903
 30
0.0
 10
60.741310
 20
178.519500
 30
0.0
  0
LWPOLYLINE
  5
23d
100
AcDbEntity
  8
SHEET_VIEW_1_DRAWING_1
 62
7
100
AcDbPolyline
 90
2
 70
0
 10
60.779074
 20
178.349158
 30
0.0
 10
60.801848
 20
178.176174
 30
0.0
  0
LWPOLYLINE
  5
23e
100
AcDbEntity
  8
SHEET_VIEW_1_DRAWING_1
 62
7
100
AcDbPolyline
 90
2
 70
0
 10
60.741310
 20
178.519500
 30
0.0
 10
60.779074
 20
178.349158
 30
0.0
  0
LWPOLYLINE
  5
23f
100
AcDbEntity
  8
SHEET_VIEW_1_DRAWING_1
 62
7
100
AcDbPolyline
 90
2
 70
0
 10
60.809458
 20
178.001862
 30
0.0
 10
60.801848
 20
177.827551
 30
0.0
  0
LWPOLYLINE
  5
240
100
AcDbEntity
  8
SHEET_VIEW_1_DRAWING_1
 62
7
100
AcDbPolyline
 90
2
 70
0
 10
60.223672
 20
176.587649
 30
0.0
 10
60.095034
 20
176.469773
 30
0.0
  0
LWPOLYLINE
  5
241
100
AcDbEntity
  8
SHEET_VIEW_1_DRAWING_1
 62
7
100
AcDbPolyline
 90
2
 70
0
 10
60.341547
 20
176.716287
 30
0.0
 10
60.223672
 20
176.587649
 30
0.0
  0
LWPOLYLINE
  5
242
100
AcDbEntity
  8
SHEET_VIEW_1_DRAWING_1
 62
7
100
AcDbPolyline
 90
3
 70
0
 10
60.095034
 20
176.469773
 30
0.0
 10
59.956611
 20
176.363558
 30
0.0
 10
59.809458
 20
176.269811
 30
0.0
  0
LWPOLYLINE
  5
243
100
AcDbEntity
  8
SHEET_VIEW_1_DRAWING_1
 62
7
100
AcDbPolyline
 90
2
 70
0
 10
59.654695
 20
176.189247
 30
0.0
 10
59.493499
 20
176.122477
 30
0.0
  0
LWPOLYLINE
  5
244
100
AcDbEntity
  8
SHEET_VIEW_1_DRAWING_1
 62
7
100
AcDbPolyline
 90
2
 70
0
 10
59.809458
 20
176.269811
 30
0.0
 10
59.654695
 20
176.189247
 30
0.0
  0
LWPOLYLINE
  5
245
100
AcDbEntity
  8
SHEET_VIEW_1_DRAWING_1
 62
7
100
AcDbPolyline
 90
2
 70
0
 10
59.327097
 20
176.070010
 30
0.0
 10
59.156755
 20
176.032247
 30
0.0
  0
LWPOLYLINE
  5
246
100
AcDbEntity
  8
SHEET_VIEW_1_DRAWING_1
 62
7
100
AcDbPolyline
 90
2
 70
0
 10
54.232157
 20
182.659486
 30
0.0
 10
54.232157
 20
158.910802
 30
0.0
  0
LWPOLYLINE
  5
247
100
AcDbEntity
  8
SHEET_VIEW_1_DRAWING_1
 62
7
100
AcDbPolyline
 90
2
 70
0
 10
68.170203
 20
186.395227
 30
0.0
 10
68.015439
 20
186.475792
 30
0.0
  0
LWPOLYLINE
  5
248
100
AcDbEntity
  8
SHEET_VIEW_1_DRAWING_1
 62
7
100
AcDbPolyline
 90
2
 70
0
 10
68.331399
 20
186.328457
 30
0.0
 10
68.170203
 20
186.395227
 30
0.0
  0
LWPOLYLINE
  5
249
100
AcDbEntity
  8
SHEET_VIEW_1_DRAWING_1
 62
7
100
AcDbPolyline
 90
2
 70
0
 10
68.497801
 20
186.275991
 30
0.0
 10
68.331399
 20
186.328457
 30
0.0
  0
LWPOLYLINE
  5
24a
100
AcDbEntity
  8
SHEET_VIEW_1_DRAWING_1
 62
7
100
AcDbPolyline
 90
2
 70
0
 10
70.828055
 20
187.362606
 30
0.0
 10
70.747490
 20
187.207843
 30
0.0
  0
LWPOLYLINE
  5
24b
100
AcDbEntity
  8
SHEET_VIEW_1_DRAWING_1
 62
7
100
AcDbPolyline
 90
2
 70
0
 10
70.894824
 20
187.523802
 30
0.0
 10
70.828055
 20
187.362606
 30
0.0
  0
LWPOLYLINE
  5
24c
100
AcDbEntity
  8
SHEET_VIEW_1_DRAWING_1
 62
7
100
AcDbPolyline
 90
2
 70
0
 10
71.007829
 20
188.033531
 30
0.0
 10
70.985055
 20
187.860546
 30
0.0
  0
LWPOLYLINE
  5
24d
100
AcDbEntity
  8
SHEET_VIEW_1_DRAWING_1
 62
7
100
AcDbPolyline
 90
2
 70
0
 10
71.015439
 20
188.207843
 30
0.0
 10
71.007829
 20
188.033531
 30
0.0
  0
LWPOLYLINE
  5
24e
100
AcDbEntity
  8
SHEET_VIEW_1_DRAWING_1
 62
7
100
AcDbPolyline
 90
2
 70
0
 10
71.007829
 20
188.382154
 30
0.0
 10
71.015439
 20
188.207843
 30
0.0
  0
LWPOLYLINE
  5
24f
100
AcDbEntity
  8
SHEET_VIEW_1_DRAWING_1
 62
7
100
AcDbPolyline
 90
2
 70
0
 10
70.985055
 20
188.555139
 30
0.0
 10
71.007829
 20
188.382154
 30
0.0
  0
LWPOLYLINE
  5
250
100
AcDbEntity
  8
SHEET_VIEW_1_DRAWING_1
 62
7
100
AcDbPolyline
 90
2
 70
0
 10
70.947291
 20
188.725481
 30
0.0
 10
70.985055
 20
188.555139
 30
0.0
  0
LWPOLYLINE
  5
251
100
AcDbEntity
  8
SHEET_VIEW_1_DRAWING_1
 62
7
100
AcDbPolyline
 90
2
 70
0
 10
70.894824
 20
188.891883
 30
0.0
 10
70.947291
 20
188.725481
 30
0.0
  0
LWPOLYLINE
  5
252
100
AcDbEntity
  8
SHEET_VIEW_1_DRAWING_1
 62
7
100
AcDbPolyline
 90
2
 70
0
 10
70.828055
 20
189.053079
 30
0.0
 10
70.894824
 20
188.891883
 30
0.0
  0
LWPOLYLINE
  5
253
100
AcDbEntity
  8
SHEET_VIEW_1_DRAWING_1
 62
7
100
AcDbPolyline
 90
2
 70
0
 10
70.747490
 20
189.207843
 30
0.0
 10
70.828055
 20
189.053079
 30
0.0
  0
LWPOLYLINE
  5
254
100
AcDbEntity
  8
SHEET_VIEW_1_DRAWING_1
 62
7
100
AcDbPolyline
 90
2
 70
0
 10
70.653743
 20
189.354996
 30
0.0
 10
70.747490
 20
189.207843
 30
0.0
  0
LWPOLYLINE
  5
255
100
AcDbEntity
  8
SHEET_VIEW_1_DRAWING_1
 62
7
100
AcDbPolyline
 90
2
 70
0
 10
70.547528
 20
189.493418
 30
0.0
 10
70.653743
 20
189.354996
 30
0.0
  0
LWPOLYLINE
  5
256
100
AcDbEntity
  8
SHEET_VIEW_1_DRAWING_1
 62
7
100
AcDbPolyline
 90
2
 70
0
 10
70.429653
 20
189.622056
 30
0.0
 10
70.547528
 20
189.493418
 30
0.0
  0
LWPOLYLINE
  5
257
100
AcDbEntity
  8
SHEET_VIEW_1_DRAWING_1
 62
7
100
AcDbPolyline
 90
2
 70
0
 10
67.083587
 20
188.725481
 30
0.0
 10
67.136054
 20
188.891883
 30
0.0
  0
LWPOLYLINE
  5
258
100
AcDbEntity
  8
SHEET_VIEW_1_DRAWING_1
 62
7
100
AcDbPolyline
 90
2
 70
0
 10
67.045823
 20
188.555139
 30
0.0
 10
67.083587
 20
188.725481
 30
0.0
  0
LWPOLYLINE
  5
259
100
AcDbEntity
  8
SHEET_VIEW_1_DRAWING_1
 62
7
100
AcDbPolyline
 90
2
 70
0
 10
67.023050
 20
188.382154
 30
0.0
 10
67.045823
 20
188.555139
 30
0.0
  0
LWPOLYLINE
  5
25a
100
AcDbEntity
  8
SHEET_VIEW_1_DRAWING_1
 62
7
100
AcDbPolyline
 90
2
 70
0
 10
67.015439
 20
188.207843
 30
0.0
 10
67.023050
 20
188.382154
 30
0.0
  0
LWPOLYLINE
  5
25b
100
AcDbEntity
  8
SHEET_VIEW_1_DRAWING_1
 62
7
100
AcDbPolyline
 90
2
 70
0
 10
70.301014
 20
189.739931
 30
0.0
 10
70.429653
 20
189.622056
 30
0.0
  0
LWPOLYLINE
  5
25c
100
AcDbEntity
  8
SHEET_VIEW_1_DRAWING_1
 62
7
100
AcDbPolyline
 90
2
 70
0
 10
70.162592
 20
189.846147
 30
0.0
 10
70.301014
 20
189.739931
 30
0.0
  0
LWPOLYLINE
  5
25d
100
AcDbEntity
  8
SHEET_VIEW_1_DRAWING_1
 62
7
100
AcDbPolyline
 90
2
 70
0
 10
70.015439
 20
189.939894
 30
0.0
 10
70.162592
 20
189.846147
 30
0.0
  0
LWPOLYLINE
  5
25e
100
AcDbEntity
  8
SHEET_VIEW_1_DRAWING_1
 62
7
100
AcDbPolyline
 90
2
 70
0
 10
69.860676
 20
190.020458
 30
0.0
 10
70.015439
 20
189.939894
 30
0.0
  0
LWPOLYLINE
  5
25f
100
AcDbEntity
  8
SHEET_VIEW_1_DRAWING_1
 62
7
100
AcDbPolyline
 90
2
 70
0
 10
69.699479
 20
190.087228
 30
0.0
 10
69.860676
 20
190.020458
 30
0.0
  0
LWPOLYLINE
  5
260
100
AcDbEntity
  8
SHEET_VIEW_1_DRAWING_1
 62
7
100
AcDbPolyline
 90
2
 70
0
 10
69.533077
 20
190.139694
 30
0.0
 10
69.699479
 20
190.087228
 30
0.0
  0
LWPOLYLINE
  5
261
100
AcDbEntity
  8
SHEET_VIEW_1_DRAWING_1
 62
7
100
AcDbPolyline
 90
2
 70
0
 10
67.202823
 20
189.053079
 30
0.0
 10
67.283388
 20
189.207843
 30
0.0
  0
LWPOLYLINE
  5
262
100
AcDbEntity
  8
SHEET_VIEW_1_DRAWING_1
 62
7
100
AcDbPolyline
 90
2
 70
0
 10
67.136054
 20
188.891883
 30
0.0
 10
67.202823
 20
189.053079
 30
0.0
  0
LWPOLYLINE
  5
263
100
AcDbEntity
  8
SHEET_VIEW_1_DRAWING_1
 62
7
100
AcDbPolyline
 90
16
 70
0
 10
67.283388
 20
189.207843
 30
0.0
 10
67.377135
 20
189.354996
 30
0.0
 10
67.483350
 20
189.493418
 30
0.0
 10
67.601225
 20
189.622056
 30
0.0
 10
67.729864
 20
189.739931
 30
0.0
 10
67.868286
 20
189.846147
 30
0.0
 10
68.015439
 20
189.939894
 30
0.0
 10
68.170203
 20
190.020458
 30
0.0
 10
68.331399
 20
190.087228
 30
0.0
 10
68.497801
 20
190.139694
 30
0.0
 10
68.668143
 20
190.177458
 30
0.0
 10
68.841128
 20
190.200232
 30
0.0
 10
69.015439
 20
190.207843
 30
0.0
 10
69.189750
 20
190.200232
 30
0.0
 10
69.362735
 20
190.177458
 30
0.0
 10
69.533077
 20
190.139694
 30
0.0
  0
LWPOLYLINE
  5
264
100
AcDbEntity
  8
SHEET_VIEW_1_DRAWING_1
 62
7
100
AcDbPolyline
 90
2
 70
0
 10
70.947291
 20
187.690205
 30
0.0
 10
70.894824
 20
187.523802
 30
0.0
  0
LWPOLYLINE
  5
265
100
AcDbEntity
  8
SHEET_VIEW_1_DRAWING_1
 62
7
100
AcDbPolyline
 90
2
 70
0
 10
70.985055
 20
187.860546
 30
0.0
 10
70.947291
 20
187.690205
 30
0.0
  0
LWPOLYLINE
  5
266
100
AcDbEntity
  8
SHEET_VIEW_1_DRAWING_1
 62
7
100
AcDbPolyline
 90
3
 70
0
 10
70.747490
 20
187.207843
 30
0.0
 10
70.653743
 20
187.060690
 30
0.0
 10
70.547528
 20
186.922267
 30
0.0
  0
LWPOLYLINE
  5
267
100
AcDbEntity
  8
SHEET_VIEW_1_DRAWING_1
 62
7
100
AcDbPolyline
 90
2
 70
0
 10
70.429653
 20
186.793629
 30
0.0
 10
70.301014
 20
186.675754
 30
0.0
  0
LWPOLYLINE
  5
268
100
AcDbEntity
  8
SHEET_VIEW_1_DRAWING_1
 62
7
100
AcDbPolyline
 90
2
 70
0
 10
70.547528
 20
186.922267
 30
0.0
 10
70.429653
 20
186.793629
 30
0.0
  0
LWPOLYLINE
  5
269
100
AcDbEntity
  8
SHEET_VIEW_1_DRAWING_1
 62
7
100
AcDbPolyline
 90
3
 70
0
 10
70.301014
 20
186.675754
 30
0.0
 10
70.162592
 20
186.569538
 30
0.0
 10
70.015439
 20
186.475792
 30
0.0
  0
LWPOLYLINE
  5
26a
100
AcDbEntity
  8
SHEET_VIEW_1_DRAWING_1
 62
7
100
AcDbPolyline
 90
2
 70
0
 10
68.668143
 20
186.238227
 30
0.0
 10
68.497801
 20
186.275991
 30
0.0
  0
LWPOLYLINE
  5
26b
100
AcDbEntity
  8
SHEET_VIEW_1_DRAWING_1
 62
7
100
AcDbPolyline
 90
2
 70
0
 10
69.860676
 20
186.395227
 30
0.0
 10
69.699479
 20
186.328457
 30
0.0
  0
LWPOLYLINE
  5
26c
100
AcDbEntity
  8
SHEET_VIEW_1_DRAWING_1
 62
7
100
AcDbPolyline
 90
2
 70
0
 10
70.015439
 20
186.475792
 30
0.0
 10
69.860676
 20
186.395227
 30
0.0
  0
LWPOLYLINE
  5
26d
100
AcDbEntity
  8
SHEET_VIEW_1_DRAWING_1
 62
7
100
AcDbPolyline
 90
7
 70
0
 10
69.699479
 20
186.328457
 30
0.0
 10
69.533077
 20
186.275991
 30
0.0
 10
69.362735
 20
186.238227
 30
0.0
 10
69.189750
 20
186.215453
 30
0.0
 10
69.015439
 20
186.207843
 30
0.0
 10
68.841128
 20
186.215453
 30
0.0
 10
68.668143
 20
186.238227
 30
0.0
  0
LWPOLYLINE
  5
26e
100
AcDbEntity
  8
SHEET_VIEW_1_DRAWING_1
 62
7
100
AcDbPolyline
 90
2
 70
0
 10
67.023050
 20
188.033531
 30
0.0
 10
67.015439
 20
188.207843
 30
0.0
  0
LWPOLYLINE
  5
26f
100
AcDbEntity
  8
SHEET_VIEW_1_DRAWING_1
 62
7
100
AcDbPolyline
 90
2
 70
0
 10
67.045823
 20
187.860546
 30
0.0
 10
67.023050
 20
188.033531
 30
0.0
  0
LWPOLYLINE
  5
270
100
AcDbEntity
  8
SHEET_VIEW_1_DRAWING_1
 62
7
100
AcDbPolyline
 90
2
 70
0
 10
67.083587
 20
187.690205
 30
0.0
 10
67.045823
 20
187.860546
 30
0.0
  0
LWPOLYLINE
  5
271
100
AcDbEntity
  8
SHEET_VIEW_1_DRAWING_1
 62
7
100
AcDbPolyline
 90
2
 70
0
 10
67.136054
 20
187.523802
 30
0.0
 10
67.083587
 20
187.690205
 30
0.0
  0
LWPOLYLINE
  5
272
100
AcDbEntity
  8
SHEET_VIEW_1_DRAWING_1
 62
7
100
AcDbPolyline
 90
2
 70
0
 10
67.202823
 20
187.362606
 30
0.0
 10
67.136054
 20
187.523802
 30
0.0
  0
LWPOLYLINE
  5
273
100
AcDbEntity
  8
SHEET_VIEW_1_DRAWING_1
 62
7
100
AcDbPolyline
 90
2
 70
0
 10
67.283388
 20
187.207843
 30
0.0
 10
67.202823
 20
187.362606
 30
0.0
  0
LWPOLYLINE
  5
274
100
AcDbEntity
  8
SHEET_VIEW_1_DRAWING_1
 62
7
100
AcDbPolyline
 90
2
 70
0
 10
67.377135
 20
187.060690
 30
0.0
 10
67.283388
 20
187.207843
 30
0.0
  0
LWPOLYLINE
  5
275
100
AcDbEntity
  8
SHEET_VIEW_1_DRAWING_1
 62
7
100
AcDbPolyline
 90
2
 70
0
 10
67.483350
 20
186.922267
 30
0.0
 10
67.377135
 20
187.060690
 30
0.0
  0
LWPOLYLINE
  5
276
100
AcDbEntity
  8
SHEET_VIEW_1_DRAWING_1
 62
7
100
AcDbPolyline
 90
2
 70
0
 10
67.601225
 20
186.793629
 30
0.0
 10
67.483350
 20
186.922267
 30
0.0
  0
LWPOLYLINE
  5
277
100
AcDbEntity
  8
SHEET_VIEW_1_DRAWING_1
 62
7
100
AcDbPolyline
 90
2
 70
0
 10
67.729864
 20
186.675754
 30
0.0
 10
67.601225
 20
186.793629
 30
0.0
  0
LWPOLYLINE
  5
278
100
AcDbEntity
  8
SHEET_VIEW_1_DRAWING_1
 62
7
100
AcDbPolyline
 90
2
 70
0
 10
67.868286
 20
186.569538
 30
0.0
 10
67.729864
 20
186.675754
 30
0.0
  0
LWPOLYLINE
  5
279
100
AcDbEntity
  8
SHEET_VIEW_1_DRAWING_1
 62
7
100
AcDbPolyline
 90
2
 70
0
 10
68.015439
 20
186.475792
 30
0.0
 10
67.868286
 20
186.569538
 30
0.0
  0
LWPOLYLINE
  5
27a
100
AcDbEntity
  8
SHEET_VIEW_1_DRAWING_1
 62
7
100
AcDbPolyline
 90
2
 70
0
 10
88.106499
 20
192.785144
 30
0.0
 10
64.357815
 20
192.785144
 30
0.0
  0
LWPOLYLINE
  5
27b
100
AcDbEntity
  8
SHEET_VIEW_1_DRAWING_1
 62
7
100
AcDbPolyline
 90
2
 70
0
 10
91.654855
 20
178.001862
 30
0.0
 10
91.662466
 20
178.176174
 30
0.0
  0
LWPOLYLINE
  5
27c
100
AcDbEntity
  8
SHEET_VIEW_1_DRAWING_1
 62
7
100
AcDbPolyline
 90
2
 70
0
 10
92.809619
 20
176.189247
 30
0.0
 10
92.654855
 20
176.269811
 30
0.0
  0
LWPOLYLINE
  5
27d
100
AcDbEntity
  8
SHEET_VIEW_1_DRAWING_1
 62
7
100
AcDbPolyline
 90
2
 70
0
 10
93.307559
 20
176.032247
 30
0.0
 10
93.137218
 20
176.070010
 30
0.0
  0
LWPOLYLINE
  5
27e
100
AcDbEntity
  8
SHEET_VIEW_1_DRAWING_1
 62
7
100
AcDbPolyline
 90
2
 70
0
 10
93.480544
 20
176.009473
 30
0.0
 10
93.307559
 20
176.032247
 30
0.0
  0
LWPOLYLINE
  5
27f
100
AcDbEntity
  8
SHEET_VIEW_1_DRAWING_1
 62
7
100
AcDbPolyline
 90
2
 70
0
 10
93.654855
 20
176.001862
 30
0.0
 10
93.480544
 20
176.009473
 30
0.0
  0
LWPOLYLINE
  5
280
100
AcDbEntity
  8
SHEET_VIEW_1_DRAWING_1
 62
7
100
AcDbPolyline
 90
2
 70
0
 10
95.586707
 20
177.484224
 30
0.0
 10
95.534241
 20
177.317822
 30
0.0
  0
LWPOLYLINE
  5
281
100
AcDbEntity
  8
SHEET_VIEW_1_DRAWING_1
 62
7
100
AcDbPolyline
 90
2
 70
0
 10
95.624471
 20
177.654566
 30
0.0
 10
95.586707
 20
177.484224
 30
0.0
  0
LWPOLYLINE
  5
282
100
AcDbEntity
  8
SHEET_VIEW_1_DRAWING_1
 62
7
100
AcDbPolyline
 90
2
 70
0
 10
95.647245
 20
177.827551
 30
0.0
 10
95.624471
 20
177.654566
 30
0.0
  0
LWPOLYLINE
  5
283
100
AcDbEntity
  8
SHEET_VIEW_1_DRAWING_1
 62
7
100
AcDbPolyline
 90
2
 70
0
 10
95.654856
 20
178.001862
 30
0.0
 10
95.647245
 20
177.827551
 30
0.0
  0
LWPOLYLINE
  5
284
100
AcDbEntity
  8
SHEET_VIEW_1_DRAWING_1
 62
7
100
AcDbPolyline
 90
2
 70
0
 10
95.647245
 20
178.176174
 30
0.0
 10
95.654856
 20
178.001862
 30
0.0
  0
LWPOLYLINE
  5
285
100
AcDbEntity
  8
SHEET_VIEW_1_DRAWING_1
 62
7
100
AcDbPolyline
 90
2
 70
0
 10
95.624471
 20
178.349158
 30
0.0
 10
95.647245
 20
178.176174
 30
0.0
  0
LWPOLYLINE
  5
286
100
AcDbEntity
  8
SHEET_VIEW_1_DRAWING_1
 62
7
100
AcDbPolyline
 90
2
 70
0
 10
95.586707
 20
178.519500
 30
0.0
 10
95.624471
 20
178.349158
 30
0.0
  0
LWPOLYLINE
  5
287
100
AcDbEntity
  8
SHEET_VIEW_1_DRAWING_1
 62
7
100
AcDbPolyline
 90
2
 70
0
 10
95.534241
 20
178.685903
 30
0.0
 10
95.586707
 20
178.519500
 30
0.0
  0
LWPOLYLINE
  5
288
100
AcDbEntity
  8
SHEET_VIEW_1_DRAWING_1
 62
7
100
AcDbPolyline
 90
2
 70
0
 10
95.467471
 20
178.847099
 30
0.0
 10
95.534241
 20
178.685903
 30
0.0
  0
LWPOLYLINE
  5
289
100
AcDbEntity
  8
SHEET_VIEW_1_DRAWING_1
 62
7
100
AcDbPolyline
 90
2
 70
0
 10
95.386906
 20
179.001862
 30
0.0
 10
95.467471
 20
178.847099
 30
0.0
  0
LWPOLYLINE
  5
28a
100
AcDbEntity
  8
SHEET_VIEW_1_DRAWING_1
 62
7
100
AcDbPolyline
 90
2
 70
0
 10
95.293160
 20
179.149015
 30
0.0
 10
95.386906
 20
179.001862
 30
0.0
  0
LWPOLYLINE
  5
28b
100
AcDbEntity
  8
SHEET_VIEW_1_DRAWING_1
 62
7
100
AcDbPolyline
 90
2
 70
0
 10
95.186944
 20
179.287437
 30
0.0
 10
95.293160
 20
179.149015
 30
0.0
  0
LWPOLYLINE
  5
28c
100
AcDbEntity
  8
SHEET_VIEW_1_DRAWING_1
 62
7
100
AcDbPolyline
 90
2
 70
0
 10
95.069069
 20
179.416076
 30
0.0
 10
95.186944
 20
179.287437
 30
0.0
  0
LWPOLYLINE
  5
28d
100
AcDbEntity
  8
SHEET_VIEW_1_DRAWING_1
 62
7
100
AcDbPolyline
 90
2
 70
0
 10
94.940431
 20
179.533951
 30
0.0
 10
95.069069
 20
179.416076
 30
0.0
  0
LWPOLYLINE
  5
28e
100
AcDbEntity
  8
SHEET_VIEW_1_DRAWING_1
 62
7
100
AcDbPolyline
 90
2
 70
0
 10
94.802008
 20
179.640166
 30
0.0
 10
94.940431
 20
179.533951
 30
0.0
  0
LWPOLYLINE
  5
28f
100
AcDbEntity
  8
SHEET_VIEW_1_DRAWING_1
 62
7
100
AcDbPolyline
 90
2
 70
0
 10
94.654855
 20
179.733913
 30
0.0
 10
94.802008
 20
179.640166
 30
0.0
  0
LWPOLYLINE
  5
290
100
AcDbEntity
  8
SHEET_VIEW_1_DRAWING_1
 62
7
100
AcDbPolyline
 90
2
 70
0
 10
94.500092
 20
179.814478
 30
0.0
 10
94.654855
 20
179.733913
 30
0.0
  0
LWPOLYLINE
  5
291
100
AcDbEntity
  8
SHEET_VIEW_1_DRAWING_1
 62
7
100
AcDbPolyline
 90
2
 70
0
 10
94.338896
 20
179.881247
 30
0.0
 10
94.500092
 20
179.814478
 30
0.0
  0
LWPOLYLINE
  5
292
100
AcDbEntity
  8
SHEET_VIEW_1_DRAWING_1
 62
7
100
AcDbPolyline
 90
2
 70
0
 10
94.172494
 20
179.933714
 30
0.0
 10
94.338896
 20
179.881247
 30
0.0
  0
LWPOLYLINE
  5
293
100
AcDbEntity
  8
SHEET_VIEW_1_DRAWING_1
 62
7
100
AcDbPolyline
 90
2
 70
0
 10
94.002152
 20
179.971478
 30
0.0
 10
94.172494
 20
179.933714
 30
0.0
  0
LWPOLYLINE
  5
294
100
AcDbEntity
  8
SHEET_VIEW_1_DRAWING_1
 62
7
100
AcDbPolyline
 90
2
 70
0
 10
93.829167
 20
179.994251
 30
0.0
 10
94.002152
 20
179.971478
 30
0.0
  0
LWPOLYLINE
  5
295
100
AcDbEntity
  8
SHEET_VIEW_1_DRAWING_1
 62
7
100
AcDbPolyline
 90
2
 70
0
 10
93.654855
 20
180.001862
 30
0.0
 10
93.829167
 20
179.994251
 30
0.0
  0
LWPOLYLINE
  5
296
100
AcDbEntity
  8
SHEET_VIEW_1_DRAWING_1
 62
7
100
AcDbPolyline
 90
2
 70
0
 10
93.480544
 20
179.994251
 30
0.0
 10
93.654855
 20
180.001862
 30
0.0
  0
LWPOLYLINE
  5
297
100
AcDbEntity
  8
SHEET_VIEW_1_DRAWING_1
 62
7
100
AcDbPolyline
 90
2
 70
0
 10
93.307559
 20
179.971478
 30
0.0
 10
93.480544
 20
179.994251
 30
0.0
  0
LWPOLYLINE
  5
298
100
AcDbEntity
  8
SHEET_VIEW_1_DRAWING_1
 62
7
100
AcDbPolyline
 90
2
 70
0
 10
93.137218
 20
179.933714
 30
0.0
 10
93.307559
 20
179.971478
 30
0.0
  0
LWPOLYLINE
  5
299
100
AcDbEntity
  8
SHEET_VIEW_1_DRAWING_1
 62
7
100
AcDbPolyline
 90
2
 70
0
 10
92.970815
 20
179.881247
 30
0.0
 10
93.137218
 20
179.933714
 30
0.0
  0
LWPOLYLINE
  5
29a
100
AcDbEntity
  8
SHEET_VIEW_1_DRAWING_1
 62
7
100
AcDbPolyline
 90
2
 70
0
 10
92.809619
 20
179.814478
 30
0.0
 10
92.970815
 20
179.881247
 30
0.0
  0
LWPOLYLINE
  5
29b
100
AcDbEntity
  8
SHEET_VIEW_1_DRAWING_1
 62
7
100
AcDbPolyline
 90
2
 70
0
 10
92.654855
 20
179.733913
 30
0.0
 10
92.809619
 20
179.814478
 30
0.0
  0
LWPOLYLINE
  5
29c
100
AcDbEntity
  8
SHEET_VIEW_1_DRAWING_1
 62
7
100
AcDbPolyline
 90
2
 70
0
 10
92.507703
 20
179.640166
 30
0.0
 10
92.654855
 20
179.733913
 30
0.0
  0
LWPOLYLINE
  5
29d
100
AcDbEntity
  8
SHEET_VIEW_1_DRAWING_1
 62
7
100
AcDbPolyline
 90
2
 70
0
 10
92.369280
 20
179.533951
 30
0.0
 10
92.507703
 20
179.640166
 30
0.0
  0
LWPOLYLINE
  5
29e
100
AcDbEntity
  8
SHEET_VIEW_1_DRAWING_1
 62
7
100
AcDbPolyline
 90
2
 70
0
 10
92.240642
 20
179.416076
 30
0.0
 10
92.369280
 20
179.533951
 30
0.0
  0
LWPOLYLINE
  5
29f
100
AcDbEntity
  8
SHEET_VIEW_1_DRAWING_1
 62
7
100
AcDbPolyline
 90
2
 70
0
 10
92.016551
 20
179.149015
 30
0.0
 10
92.122767
 20
179.287437
 30
0.0
  0
LWPOLYLINE
  5
2a0
100
AcDbEntity
  8
SHEET_VIEW_1_DRAWING_1
 62
7
100
AcDbPolyline
 90
2
 70
0
 10
91.922805
 20
179.001862
 30
0.0
 10
92.016551
 20
179.149015
 30
0.0
  0
LWPOLYLINE
  5
2a1
100
AcDbEntity
  8
SHEET_VIEW_1_DRAWING_1
 62
7
100
AcDbPolyline
 90
2
 70
0
 10
92.122767
 20
179.287437
 30
0.0
 10
92.240642
 20
179.416076
 30
0.0
  0
LWPOLYLINE
  5
2a2
100
AcDbEntity
  8
SHEET_VIEW_1_DRAWING_1
 62
7
100
AcDbPolyline
 90
15
 70
0
 10
95.534241
 20
177.317822
 30
0.0
 10
95.467471
 20
177.156626
 30
0.0
 10
95.386906
 20
177.001862
 30
0.0
 10
95.293160
 20
176.854709
 30
0.0
 10
95.186944
 20
176.716287
 30
0.0
 10
95.069069
 20
176.587649
 30
0.0
 10
94.940431
 20
176.469773
 30
0.0
 10
94.802008
 20
176.363558
 30
0.0
 10
94.654855
 20
176.269811
 30
0.0
 10
94.500092
 20
176.189247
 30
0.0
 10
94.338896
 20
176.122477
 30
0.0
 10
94.172494
 20
176.070010
 30
0.0
 10
94.002152
 20
176.032247
 30
0.0
 10
93.829167
 20
176.009473
 30
0.0
 10
93.654855
 20
176.001862
 30
0.0
  0
LWPOLYLINE
  5
2a3
100
AcDbEntity
  8
SHEET_VIEW_1_DRAWING_1
 62
7
100
AcDbPolyline
 90
2
 70
0
 10
92.507703
 20
176.363558
 30
0.0
 10
92.369280
 20
176.469773
 30
0.0
  0
LWPOLYLINE
  5
2a4
100
AcDbEntity
  8
SHEET_VIEW_1_DRAWING_1
 62
7
100
AcDbPolyline
 90
2
 70
0
 10
92.654855
 20
176.269811
 30
0.0
 10
92.507703
 20
176.363558
 30
0.0
  0
LWPOLYLINE
  5
2a5
100
AcDbEntity
  8
SHEET_VIEW_1_DRAWING_1
 62
7
100
AcDbPolyline
 90
3
 70
0
 10
92.369280
 20
176.469773
 30
0.0
 10
92.240642
 20
176.587649
 30
0.0
 10
92.122767
 20
176.716287
 30
0.0
  0
LWPOLYLINE
  5
2a6
100
AcDbEntity
  8
SHEET_VIEW_1_DRAWING_1
 62
7
100
AcDbPolyline
 90
2
 70
0
 10
92.016551
 20
176.854709
 30
0.0
 10
91.922805
 20
177.001862
 30
0.0
  0
LWPOLYLINE
  5
2a7
100
AcDbEntity
  8
SHEET_VIEW_1_DRAWING_1
 62
7
100
AcDbPolyline
 90
2
 70
0
 10
92.122767
 20
176.716287
 30
0.0
 10
92.016551
 20
176.854709
 30
0.0
  0
LWPOLYLINE
  5
2a8
100
AcDbEntity
  8
SHEET_VIEW_1_DRAWING_1
 62
7
100
AcDbPolyline
 90
3
 70
0
 10
91.922805
 20
177.001862
 30
0.0
 10
91.842240
 20
177.156626
 30
0.0
 10
91.775470
 20
177.317822
 30
0.0
  0
LWPOLYLINE
  5
2a9
100
AcDbEntity
  8
SHEET_VIEW_1_DRAWING_1
 62
7
100
AcDbPolyline
 90
2
 70
0
 10
91.723004
 20
177.484224
 30
0.0
 10
91.685240
 20
177.654566
 30
0.0
  0
LWPOLYLINE
  5
2aa
100
AcDbEntity
  8
SHEET_VIEW_1_DRAWING_1
 62
7
100
AcDbPolyline
 90
2
 70
0
 10
91.775470
 20
177.317822
 30
0.0
 10
91.723004
 20
177.484224
 30
0.0
  0
LWPOLYLINE
  5
2ab
100
AcDbEntity
  8
SHEET_VIEW_1_DRAWING_1
 62
7
100
AcDbPolyline
 90
3
 70
0
 10
91.685240
 20
177.654566
 30
0.0
 10
91.662466
 20
177.827551
 30
0.0
 10
91.654855
 20
178.001862
 30
0.0
  0
LWPOLYLINE
  5
2ac
100
AcDbEntity
  8
SHEET_VIEW_1_DRAWING_1
 62
7
100
AcDbPolyline
 90
6
 70
0
 10
91.662466
 20
178.176174
 30
0.0
 10
91.685240
 20
178.349158
 30
0.0
 10
91.723004
 20
178.519500
 30
0.0
 10
91.775470
 20
178.685903
 30
0.0
 10
91.842240
 20
178.847099
 30
0.0
 10
91.922805
 20
179.001862
 30
0.0
  0
LWPOLYLINE
  5
2ad
100
AcDbEntity
  8
SHEET_VIEW_1_DRAWING_1
 62
7
100
AcDbPolyline
 90
2
 70
0
 10
92.970815
 20
176.122477
 30
0.0
 10
92.809619
 20
176.189247
 30
0.0
  0
LWPOLYLINE
  5
2ae
100
AcDbEntity
  8
SHEET_VIEW_1_DRAWING_1
 62
7
100
AcDbPolyline
 90
2
 70
0
 10
93.137218
 20
176.070010
 30
0.0
 10
92.970815
 20
176.122477
 30
0.0
  0
LWPOLYLINE
  5
2af
100
AcDbEntity
  8
SHEET_VIEW_1_DRAWING_1
 62
7
100
AcDbPolyline
 90
2
 70
0
 10
98.232157
 20
158.910802
 30
0.0
 10
98.232157
 20
182.659486
 30
0.0
  0
LWPOLYLINE
  5
2b0
100
AcDbEntity
  8
SHEET_VIEW_1_DRAWING_1
 62
7
100
AcDbPolyline
 90
2
 70
0
 10
92.970815
 20
165.447811
 30
0.0
 10
93.137218
 20
165.500278
 30
0.0
  0
LWPOLYLINE
  5
2b1
100
AcDbEntity
  8
SHEET_VIEW_1_DRAWING_1
 62
7
100
AcDbPolyline
 90
2
 70
0
 10
92.809619
 20
165.381042
 30
0.0
 10
92.970815
 20
165.447811
 30
0.0
  0
LWPOLYLINE
  5
2b2
100
AcDbEntity
  8
SHEET_VIEW_1_DRAWING_1
 62
7
100
AcDbPolyline
 90
2
 70
0
 10
92.654855
 20
165.300477
 30
0.0
 10
92.809619
 20
165.381042
 30
0.0
  0
LWPOLYLINE
  5
2b3
100
AcDbEntity
  8
SHEET_VIEW_1_DRAWING_1
 62
7
100
AcDbPolyline
 90
2
 70
0
 10
92.507703
 20
165.206730
 30
0.0
 10
92.654855
 20
165.300477
 30
0.0
  0
LWPOLYLINE
  5
2b4
100
AcDbEntity
  8
SHEET_VIEW_1_DRAWING_1
 62
7
100
AcDbPolyline
 90
2
 70
0
 10
92.369280
 20
165.100515
 30
0.0
 10
92.507703
 20
165.206730
 30
0.0
  0
LWPOLYLINE
  5
2b5
100
AcDbEntity
  8
SHEET_VIEW_1_DRAWING_1
 62
7
100
AcDbPolyline
 90
2
 70
0
 10
92.240642
 20
164.982640
 30
0.0
 10
92.369280
 20
165.100515
 30
0.0
  0
LWPOLYLINE
  5
2b6
100
AcDbEntity
  8
SHEET_VIEW_1_DRAWING_1
 62
7
100
AcDbPolyline
 90
2
 70
0
 10
92.122767
 20
164.854001
 30
0.0
 10
92.240642
 20
164.982640
 30
0.0
  0
LWPOLYLINE
  5
2b7
100
AcDbEntity
  8
SHEET_VIEW_1_DRAWING_1
 62
7
100
AcDbPolyline
 90
2
 70
0
 10
92.016551
 20
164.715579
 30
0.0
 10
92.122767
 20
164.854001
 30
0.0
  0
LWPOLYLINE
  5
2b8
100
AcDbEntity
  8
SHEET_VIEW_1_DRAWING_1
 62
7
100
AcDbPolyline
 90
2
 70
0
 10
91.922805
 20
164.568426
 30
0.0
 10
92.016551
 20
164.715579
 30
0.0
  0
LWPOLYLINE
  5
2b9
100
AcDbEntity
  8
SHEET_VIEW_1_DRAWING_1
 62
7
100
AcDbPolyline
 90
2
 70
0
 10
91.842240
 20
164.413663
 30
0.0
 10
91.922805
 20
164.568426
 30
0.0
  0
LWPOLYLINE
  5
2ba
100
AcDbEntity
  8
SHEET_VIEW_1_DRAWING_1
 62
7
100
AcDbPolyline
 90
2
 70
0
 10
91.775470
 20
164.252466
 30
0.0
 10
91.842240
 20
164.413663
 30
0.0
  0
LWPOLYLINE
  5
2bb
100
AcDbEntity
  8
SHEET_VIEW_1_DRAWING_1
 62
7
100
AcDbPolyline
 90
2
 70
0
 10
94.172494
 20
161.636574
 30
0.0
 10
94.002152
 20
161.598811
 30
0.0
  0
LWPOLYLINE
  5
2bc
100
AcDbEntity
  8
SHEET_VIEW_1_DRAWING_1
 62
7
100
AcDbPolyline
 90
2
 70
0
 10
94.338896
 20
161.689041
 30
0.0
 10
94.172494
 20
161.636574
 30
0.0
  0
LWPOLYLINE
  5
2bd
100
AcDbEntity
  8
SHEET_VIEW_1_DRAWING_1
 62
7
100
AcDbPolyline
 90
2
 70
0
 10
94.500092
 20
161.755811
 30
0.0
 10
94.338896
 20
161.689041
 30
0.0
  0
LWPOLYLINE
  5
2be
100
AcDbEntity
  8
SHEET_VIEW_1_DRAWING_1
 62
7
100
AcDbPolyline
 90
2
 70
0
 10
94.654855
 20
161.836375
 30
0.0
 10
94.500092
 20
161.755811
 30
0.0
  0
LWPOLYLINE
  5
2bf
100
AcDbEntity
  8
SHEET_VIEW_1_DRAWING_1
 62
7
100
AcDbPolyline
 90
2
 70
0
 10
94.802008
 20
161.930122
 30
0.0
 10
94.654855
 20
161.836375
 30
0.0
  0
LWPOLYLINE
  5
2c0
100
AcDbEntity
  8
SHEET_VIEW_1_DRAWING_1
 62
7
100
AcDbPolyline
 90
2
 70
0
 10
94.940431
 20
162.036337
 30
0.0
 10
94.802008
 20
161.930122
 30
0.0
  0
LWPOLYLINE
  5
2c1
100
AcDbEntity
  8
SHEET_VIEW_1_DRAWING_1
 62
7
100
AcDbPolyline
 90
2
 70
0
 10
95.069069
 20
162.154213
 30
0.0
 10
94.940431
 20
162.036337
 30
0.0
  0
LWPOLYLINE
  5
2c2
100
AcDbEntity
  8
SHEET_VIEW_1_DRAWING_1
 62
7
100
AcDbPolyline
 90
2
 70
0
 10
95.186944
 20
162.282851
 30
0.0
 10
95.069069
 20
162.154213
 30
0.0
  0
LWPOLYLINE
  5
2c3
100
AcDbEntity
  8
SHEET_VIEW_1_DRAWING_1
 62
7
100
AcDbPolyline
 90
2
 70
0
 10
95.293160
 20
162.421273
 30
0.0
 10
95.186944
 20
162.282851
 30
0.0
  0
LWPOLYLINE
  5
2c4
100
AcDbEntity
  8
SHEET_VIEW_1_DRAWING_1
 62
7
100
AcDbPolyline
 90
2
 70
0
 10
95.386906
 20
162.568426
 30
0.0
 10
95.293160
 20
162.421273
 30
0.0
  0
LWPOLYLINE
  5
2c5
100
AcDbEntity
  8
SHEET_VIEW_1_DRAWING_1
 62
7
100
AcDbPolyline
 90
2
 70
0
 10
95.467471
 20
162.723190
 30
0.0
 10
95.386906
 20
162.568426
 30
0.0
  0
LWPOLYLINE
  5
2c6
100
AcDbEntity
  8
SHEET_VIEW_1_DRAWING_1
 62
7
100
AcDbPolyline
 90
2
 70
0
 10
95.534241
 20
162.884386
 30
0.0
 10
95.467471
 20
162.723190
 30
0.0
  0
LWPOLYLINE
  5
2c7
100
AcDbEntity
  8
SHEET_VIEW_1_DRAWING_1
 62
7
100
AcDbPolyline
 90
2
 70
0
 10
95.586707
 20
163.050788
 30
0.0
 10
95.534241
 20
162.884386
 30
0.0
  0
LWPOLYLINE
  5
2c8
100
AcDbEntity
  8
SHEET_VIEW_1_DRAWING_1
 62
7
100
AcDbPolyline
 90
2
 70
0
 10
95.624471
 20
163.221130
 30
0.0
 10
95.586707
 20
163.050788
 30
0.0
  0
LWPOLYLINE
  5
2c9
100
AcDbEntity
  8
SHEET_VIEW_1_DRAWING_1
 62
7
100
AcDbPolyline
 90
2
 70
0
 10
95.647245
 20
163.394114
 30
0.0
 10
95.624471
 20
163.221130
 30
0.0
  0
LWPOLYLINE
  5
2ca
100
AcDbEntity
  8
SHEET_VIEW_1_DRAWING_1
 62
7
100
AcDbPolyline
 90
2
 70
0
 10
95.654856
 20
163.568426
 30
0.0
 10
95.647245
 20
163.394114
 30
0.0
  0
LWPOLYLINE
  5
2cb
100
AcDbEntity
  8
SHEET_VIEW_1_DRAWING_1
 62
7
100
AcDbPolyline
 90
2
 70
0
 10
95.647245
 20
163.742738
 30
0.0
 10
95.654856
 20
163.568426
 30
0.0
  0
LWPOLYLINE
  5
2cc
100
AcDbEntity
  8
SHEET_VIEW_1_DRAWING_1
 62
7
100
AcDbPolyline
 90
2
 70
0
 10
95.624471
 20
163.915722
 30
0.0
 10
95.647245
 20
163.742738
 30
0.0
  0
LWPOLYLINE
  5
2cd
100
AcDbEntity
  8
SHEET_VIEW_1_DRAWING_1
 62
7
100
AcDbPolyline
 90
2
 70
0
 10
95.586707
 20
164.086064
 30
0.0
 10
95.624471
 20
163.915722
 30
0.0
  0
LWPOLYLINE
  5
2ce
100
AcDbEntity
  8
SHEET_VIEW_1_DRAWING_1
 62
7
100
AcDbPolyline
 90
2
 70
0
 10
95.534241
 20
164.252466
 30
0.0
 10
95.586707
 20
164.086064
 30
0.0
  0
LWPOLYLINE
  5
2cf
100
AcDbEntity
  8
SHEET_VIEW_1_DRAWING_1
 62
7
100
AcDbPolyline
 90
2
 70
0
 10
95.467471
 20
164.413663
 30
0.0
 10
95.534241
 20
164.252466
 30
0.0
  0
LWPOLYLINE
  5
2d0
100
AcDbEntity
  8
SHEET_VIEW_1_DRAWING_1
 62
7
100
AcDbPolyline
 90
2
 70
0
 10
95.386906
 20
164.568426
 30
0.0
 10
95.467471
 20
164.413663
 30
0.0
  0
LWPOLYLINE
  5
2d1
100
AcDbEntity
  8
SHEET_VIEW_1_DRAWING_1
 62
7
100
AcDbPolyline
 90
2
 70
0
 10
95.293160
 20
164.715579
 30
0.0
 10
95.386906
 20
164.568426
 30
0.0
  0
LWPOLYLINE
  5
2d2
100
AcDbEntity
  8
SHEET_VIEW_1_DRAWING_1
 62
7
100
AcDbPolyline
 90
2
 70
0
 10
95.186944
 20
164.854001
 30
0.0
 10
95.293160
 20
164.715579
 30
0.0
  0
LWPOLYLINE
  5
2d3
100
AcDbEntity
  8
SHEET_VIEW_1_DRAWING_1
 62
7
100
AcDbPolyline
 90
2
 70
0
 10
95.069069
 20
164.982640
 30
0.0
 10
95.186944
 20
164.854001
 30
0.0
  0
LWPOLYLINE
  5
2d4
100
AcDbEntity
  8
SHEET_VIEW_1_DRAWING_1
 62
7
100
AcDbPolyline
 90
2
 70
0
 10
94.940431
 20
165.100515
 30
0.0
 10
95.069069
 20
164.982640
 30
0.0
  0
LWPOLYLINE
  5
2d5
100
AcDbEntity
  8
SHEET_VIEW_1_DRAWING_1
 62
7
100
AcDbPolyline
 90
2
 70
0
 10
94.802008
 20
165.206730
 30
0.0
 10
94.940431
 20
165.100515
 30
0.0
  0
LWPOLYLINE
  5
2d6
100
AcDbEntity
  8
SHEET_VIEW_1_DRAWING_1
 62
7
100
AcDbPolyline
 90
2
 70
0
 10
94.654855
 20
165.300477
 30
0.0
 10
94.802008
 20
165.206730
 30
0.0
  0
LWPOLYLINE
  5
2d7
100
AcDbEntity
  8
SHEET_VIEW_1_DRAWING_1
 62
7
100
AcDbPolyline
 90
2
 70
0
 10
94.500092
 20
165.381042
 30
0.0
 10
94.654855
 20
165.300477
 30
0.0
  0
LWPOLYLINE
  5
2d8
100
AcDbEntity
  8
SHEET_VIEW_1_DRAWING_1
 62
7
100
AcDbPolyline
 90
2
 70
0
 10
94.338896
 20
165.447811
 30
0.0
 10
94.500092
 20
165.381042
 30
0.0
  0
LWPOLYLINE
  5
2d9
100
AcDbEntity
  8
SHEET_VIEW_1_DRAWING_1
 62
7
100
AcDbPolyline
 90
2
 70
0
 10
94.172494
 20
165.500278
 30
0.0
 10
94.338896
 20
165.447811
 30
0.0
  0
LWPOLYLINE
  5
2da
100
AcDbEntity
  8
SHEET_VIEW_1_DRAWING_1
 62
7
100
AcDbPolyline
 90
2
 70
0
 10
94.002152
 20
165.538042
 30
0.0
 10
94.172494
 20
165.500278
 30
0.0
  0
LWPOLYLINE
  5
2db
100
AcDbEntity
  8
SHEET_VIEW_1_DRAWING_1
 62
7
100
AcDbPolyline
 90
2
 70
0
 10
93.829167
 20
165.560815
 30
0.0
 10
94.002152
 20
165.538042
 30
0.0
  0
LWPOLYLINE
  5
2dc
100
AcDbEntity
  8
SHEET_VIEW_1_DRAWING_1
 62
7
100
AcDbPolyline
 90
2
 70
0
 10
93.654855
 20
165.568426
 30
0.0
 10
93.829167
 20
165.560815
 30
0.0
  0
LWPOLYLINE
  5
2dd
100
AcDbEntity
  8
SHEET_VIEW_1_DRAWING_1
 62
7
100
AcDbPolyline
 90
2
 70
0
 10
93.307559
 20
165.538042
 30
0.0
 10
93.480544
 20
165.560815
 30
0.0
  0
LWPOLYLINE
  5
2de
100
AcDbEntity
  8
SHEET_VIEW_1_DRAWING_1
 62
7
100
AcDbPolyline
 90
2
 70
0
 10
93.137218
 20
165.500278
 30
0.0
 10
93.307559
 20
165.538042
 30
0.0
  0
LWPOLYLINE
  5
2df
100
AcDbEntity
  8
SHEET_VIEW_1_DRAWING_1
 62
7
100
AcDbPolyline
 90
2
 70
0
 10
93.480544
 20
165.560815
 30
0.0
 10
93.654855
 20
165.568426
 30
0.0
  0
LWPOLYLINE
  5
2e0
100
AcDbEntity
  8
SHEET_VIEW_1_DRAWING_1
 62
7
100
AcDbPolyline
 90
2
 70
0
 10
93.829167
 20
161.576037
 30
0.0
 10
93.654855
 20
161.568426
 30
0.0
  0
LWPOLYLINE
  5
2e1
100
AcDbEntity
  8
SHEET_VIEW_1_DRAWING_1
 62
7
100
AcDbPolyline
 90
2
 70
0
 10
94.002152
 20
161.598811
 30
0.0
 10
93.829167
 20
161.576037
 30
0.0
  0
LWPOLYLINE
  5
2e2
100
AcDbEntity
  8
SHEET_VIEW_1_DRAWING_1
 62
7
100
AcDbPolyline
 90
21
 70
0
 10
93.654855
 20
161.568426
 30
0.0
 10
93.480544
 20
161.576037
 30
0.0
 10
93.307559
 20
161.598811
 30
0.0
 10
93.137218
 20
161.636574
 30
0.0
 10
92.970815
 20
161.689041
 30
0.0
 10
92.809619
 20
161.755811
 30
0.0
 10
92.654855
 20
161.836375
 30
0.0
 10
92.507703
 20
161.930122
 30
0.0
 10
92.369280
 20
162.036337
 30
0.0
 10
92.240642
 20
162.154213
 30
0.0
 10
92.122767
 20
162.282851
 30
0.0
 10
92.016551
 20
162.421273
 30
0.0
 10
91.922805
 20
162.568426
 30
0.0
 10
91.842240
 20
162.723190
 30
0.0
 10
91.775470
 20
162.884386
 30
0.0
 10
91.723004
 20
163.050788
 30
0.0
 10
91.685240
 20
163.221130
 30
0.0
 10
91.662466
 20
163.394114
 30
0.0
 10
91.654855
 20
163.568426
 30
0.0
 10
91.662466
 20
163.742738
 30
0.0
 10
91.685240
 20
163.915722
 30
0.0
  0
LWPOLYLINE
  5
2e3
100
AcDbEntity
  8
SHEET_VIEW_1_DRAWING_1
 62
7
100
AcDbPolyline
 90
2
 70
0
 10
91.723004
 20
164.086064
 30
0.0
 10
91.775470
 20
164.252466
 30
0.0
  0
LWPOLYLINE
  5
2e4
100
AcDbEntity
  8
SHEET_VIEW_1_DRAWING_1
 62
7
100
AcDbPolyline
 90
2
 70
0
 10
91.685240
 20
163.915722
 30
0.0
 10
91.723004
 20
164.086064
 30
0.0
  0
LWPOLYLINE
  5
2e5
100
AcDbEntity
  8
SHEET_VIEW_1_DRAWING_1
 62
7
100
AcDbPolyline
 90
2
 70
0
 10
97.172123
 20
157.127991
 30
0.0
 10
98.232157
 20
158.910802
 30
0.0
  0
LWPOLYLINE
  5
2e6
100
AcDbEntity
  8
SHEET_VIEW_1_DRAWING_1
 62
7
100
AcDbPolyline
 90
2
 70
0
 10
91.578115
 20
151.049350
 30
0.0
 10
93.161288
 20
152.389369
 30
0.0
  0
LWPOLYLINE
  5
2e7
100
AcDbEntity
  8
SHEET_VIEW_1_DRAWING_1
 62
7
100
AcDbPolyline
 90
2
 70
0
 10
95.967951
 20
155.439186
 30
0.0
 10
97.172123
 20
157.127991
 30
0.0
  0
LWPOLYLINE
  5
2e8
100
AcDbEntity
  8
SHEET_VIEW_1_DRAWING_1
 62
7
100
AcDbPolyline
 90
2
 70
0
 10
94.627932
 20
153.856013
 30
0.0
 10
95.967951
 20
155.439186
 30
0.0
  0
LWPOLYLINE
  5
2e9
100
AcDbEntity
  8
SHEET_VIEW_1_DRAWING_1
 62
7
100
AcDbPolyline
 90
2
 70
0
 10
93.161288
 20
152.389369
 30
0.0
 10
94.627932
 20
153.856013
 30
0.0
  0
LWPOLYLINE
  5
2ea
100
AcDbEntity
  8
SHEET_VIEW_1_DRAWING_1
 62
7
100
AcDbPolyline
 90
2
 70
0
 10
89.889311
 20
149.845178
 30
0.0
 10
91.578115
 20
151.049350
 30
0.0
  0
LWPOLYLINE
  5
2eb
100
AcDbEntity
  8
SHEET_VIEW_1_DRAWING_1
 62
7
100
AcDbPolyline
 90
2
 70
0
 10
88.106499
 20
148.785144
 30
0.0
 10
89.889311
 20
149.845178
 30
0.0
  0
LWPOLYLINE
  5
2ec
100
AcDbEntity
  8
SHEET_VIEW_1_DRAWING_1
 62
7
100
AcDbPolyline
 90
2
 70
0
 10
84.294112
 20
155.175061
 30
0.0
 10
84.448875
 20
155.094496
 30
0.0
  0
LWPOLYLINE
  5
2ed
100
AcDbEntity
  8
SHEET_VIEW_1_DRAWING_1
 62
7
100
AcDbPolyline
 90
2
 70
0
 10
81.517023
 20
152.844808
 30
0.0
 10
81.479260
 20
153.015149
 30
0.0
  0
LWPOLYLINE
  5
2ee
100
AcDbEntity
  8
SHEET_VIEW_1_DRAWING_1
 62
7
100
AcDbPolyline
 90
2
 70
0
 10
81.569490
 20
152.678405
 30
0.0
 10
81.517023
 20
152.844808
 30
0.0
  0
LWPOLYLINE
  5
2ef
100
AcDbEntity
  8
SHEET_VIEW_1_DRAWING_1
 62
7
100
AcDbPolyline
 90
2
 70
0
 10
81.636260
 20
152.517209
 30
0.0
 10
81.569490
 20
152.678405
 30
0.0
  0
LWPOLYLINE
  5
2f0
100
AcDbEntity
  8
SHEET_VIEW_1_DRAWING_1
 62
7
100
AcDbPolyline
 90
2
 70
0
 10
81.716824
 20
152.362445
 30
0.0
 10
81.636260
 20
152.517209
 30
0.0
  0
LWPOLYLINE
  5
2f1
100
AcDbEntity
  8
SHEET_VIEW_1_DRAWING_1
 62
7
100
AcDbPolyline
 90
2
 70
0
 10
81.810571
 20
152.215293
 30
0.0
 10
81.716824
 20
152.362445
 30
0.0
  0
LWPOLYLINE
  5
2f2
100
AcDbEntity
  8
SHEET_VIEW_1_DRAWING_1
 62
7
100
AcDbPolyline
 90
2
 70
0
 10
81.916786
 20
152.076870
 30
0.0
 10
81.810571
 20
152.215293
 30
0.0
  0
LWPOLYLINE
  5
2f3
100
AcDbEntity
  8
SHEET_VIEW_1_DRAWING_1
 62
7
100
AcDbPolyline
 90
2
 70
0
 10
82.034661
 20
151.948232
 30
0.0
 10
81.916786
 20
152.076870
 30
0.0
  0
LWPOLYLINE
  5
2f4
100
AcDbEntity
  8
SHEET_VIEW_1_DRAWING_1
 62
7
100
AcDbPolyline
 90
2
 70
0
 10
82.163300
 20
151.830357
 30
0.0
 10
82.034661
 20
151.948232
 30
0.0
  0
LWPOLYLINE
  5
2f5
100
AcDbEntity
  8
SHEET_VIEW_1_DRAWING_1
 62
7
100
AcDbPolyline
 90
2
 70
0
 10
82.301722
 20
151.724141
 30
0.0
 10
82.163300
 20
151.830357
 30
0.0
  0
LWPOLYLINE
  5
2f6
100
AcDbEntity
  8
SHEET_VIEW_1_DRAWING_1
 62
7
100
AcDbPolyline
 90
2
 70
0
 10
82.448875
 20
151.630395
 30
0.0
 10
82.301722
 20
151.724141
 30
0.0
  0
LWPOLYLINE
  5
2f7
100
AcDbEntity
  8
SHEET_VIEW_1_DRAWING_1
 62
7
100
AcDbPolyline
 90
2
 70
0
 10
82.603639
 20
151.549830
 30
0.0
 10
82.448875
 20
151.630395
 30
0.0
  0
LWPOLYLINE
  5
2f8
100
AcDbEntity
  8
SHEET_VIEW_1_DRAWING_1
 62
7
100
AcDbPolyline
 90
2
 70
0
 10
82.764835
 20
151.483060
 30
0.0
 10
82.603639
 20
151.549830
 30
0.0
  0
LWPOLYLINE
  5
2f9
100
AcDbEntity
  8
SHEET_VIEW_1_DRAWING_1
 62
7
100
AcDbPolyline
 90
2
 70
0
 10
82.931237
 20
151.430594
 30
0.0
 10
82.764835
 20
151.483060
 30
0.0
  0
LWPOLYLINE
  5
2fa
100
AcDbEntity
  8
SHEET_VIEW_1_DRAWING_1
 62
7
100
AcDbPolyline
 90
2
 70
0
 10
85.441265
 20
153.536757
 30
0.0
 10
85.448875
 20
153.362446
 30
0.0
  0
LWPOLYLINE
  5
2fb
100
AcDbEntity
  8
SHEET_VIEW_1_DRAWING_1
 62
7
100
AcDbPolyline
 90
2
 70
0
 10
85.418491
 20
153.709742
 30
0.0
 10
85.441265
 20
153.536757
 30
0.0
  0
LWPOLYLINE
  5
2fc
100
AcDbEntity
  8
SHEET_VIEW_1_DRAWING_1
 62
7
100
AcDbPolyline
 90
2
 70
0
 10
85.380727
 20
153.880084
 30
0.0
 10
85.418491
 20
153.709742
 30
0.0
  0
LWPOLYLINE
  5
2fd
100
AcDbEntity
  8
SHEET_VIEW_1_DRAWING_1
 62
7
100
AcDbPolyline
 90
2
 70
0
 10
85.328260
 20
154.046486
 30
0.0
 10
85.380727
 20
153.880084
 30
0.0
  0
LWPOLYLINE
  5
2fe
100
AcDbEntity
  8
SHEET_VIEW_1_DRAWING_1
 62
7
100
AcDbPolyline
 90
2
 70
0
 10
85.261491
 20
154.207682
 30
0.0
 10
85.328260
 20
154.046486
 30
0.0
  0
LWPOLYLINE
  5
2ff
100
AcDbEntity
  8
SHEET_VIEW_1_DRAWING_1
 62
7
100
AcDbPolyline
 90
2
 70
0
 10
85.180926
 20
154.362446
 30
0.0
 10
85.261491
 20
154.207682
 30
0.0
  0
LWPOLYLINE
  5
300
100
AcDbEntity
  8
SHEET_VIEW_1_DRAWING_1
 62
7
100
AcDbPolyline
 90
2
 70
0
 10
85.087179
 20
154.509598
 30
0.0
 10
85.180926
 20
154.362446
 30
0.0
  0
LWPOLYLINE
  5
301
100
AcDbEntity
  8
SHEET_VIEW_1_DRAWING_1
 62
7
100
AcDbPolyline
 90
2
 70
0
 10
84.980964
 20
154.648021
 30
0.0
 10
85.087179
 20
154.509598
 30
0.0
  0
LWPOLYLINE
  5
302
100
AcDbEntity
  8
SHEET_VIEW_1_DRAWING_1
 62
7
100
AcDbPolyline
 90
2
 70
0
 10
84.863089
 20
154.776659
 30
0.0
 10
84.980964
 20
154.648021
 30
0.0
  0
LWPOLYLINE
  5
303
100
AcDbEntity
  8
SHEET_VIEW_1_DRAWING_1
 62
7
100
AcDbPolyline
 90
2
 70
0
 10
84.596028
 20
155.000750
 30
0.0
 10
84.734450
 20
154.894534
 30
0.0
  0
LWPOLYLINE
  5
304
100
AcDbEntity
  8
SHEET_VIEW_1_DRAWING_1
 62
7
100
AcDbPolyline
 90
2
 70
0
 10
84.448875
 20
155.094496
 30
0.0
 10
84.596028
 20
155.000750
 30
0.0
  0
LWPOLYLINE
  5
305
100
AcDbEntity
  8
SHEET_VIEW_1_DRAWING_1
 62
7
100
AcDbPolyline
 90
2
 70
0
 10
84.734450
 20
154.894534
 30
0.0
 10
84.863089
 20
154.776659
 30
0.0
  0
LWPOLYLINE
  5
306
100
AcDbEntity
  8
SHEET_VIEW_1_DRAWING_1
 62
7
100
AcDbPolyline
 90
2
 70
0
 10
85.441265
 20
153.188134
 30
0.0
 10
85.418491
 20
153.015149
 30
0.0
  0
LWPOLYLINE
  5
307
100
AcDbEntity
  8
SHEET_VIEW_1_DRAWING_1
 62
7
100
AcDbPolyline
 90
2
 70
0
 10
85.448875
 20
153.362446
 30
0.0
 10
85.441265
 20
153.188134
 30
0.0
  0
LWPOLYLINE
  5
308
100
AcDbEntity
  8
SHEET_VIEW_1_DRAWING_1
 62
7
100
AcDbPolyline
 90
20
 70
0
 10
85.418491
 20
153.015149
 30
0.0
 10
85.380727
 20
152.844808
 30
0.0
 10
85.328260
 20
152.678405
 30
0.0
 10
85.261491
 20
152.517209
 30
0.0
 10
85.180926
 20
152.362445
 30
0.0
 10
85.087179
 20
152.215293
 30
0.0
 10
84.980964
 20
152.076870
 30
0.0
 10
84.863089
 20
151.948232
 30
0.0
 10
84.734450
 20
151.830357
 30
0.0
 10
84.596028
 20
151.724141
 30
0.0
 10
84.448875
 20
151.630395
 30
0.0
 10
84.294112
 20
151.549830
 30
0.0
 10
84.132915
 20
151.483060
 30
0.0
 10
83.966513
 20
151.430594
 30
0.0
 10
83.796171
 20
151.392830
 30
0.0
 10
83.623186
 20
151.370056
 30
0.0
 10
83.448875
 20
151.362445
 30
0.0
 10
83.274564
 20
151.370056
 30
0.0
 10
83.101579
 20
151.392830
 30
0.0
 10
82.931237
 20
151.430594
 30
0.0
  0
LWPOLYLINE
  5
309
100
AcDbEntity
  8
SHEET_VIEW_1_DRAWING_1
 62
7
100
AcDbPolyline
 90
5
 70
0
 10
81.479260
 20
153.015149
 30
0.0
 10
81.456486
 20
153.188134
 30
0.0
 10
81.448875
 20
153.362446
 30
0.0
 10
81.456486
 20
153.536757
 30
0.0
 10
81.479260
 20
153.709742
 30
0.0
  0
LWPOLYLINE
  5
30a
100
AcDbEntity
  8
SHEET_VIEW_1_DRAWING_1
 62
7
100
AcDbPolyline
 90
2
 70
0
 10
81.517023
 20
153.880084
 30
0.0
 10
81.569490
 20
154.046486
 30
0.0
  0
LWPOLYLINE
  5
30b
100
AcDbEntity
  8
SHEET_VIEW_1_DRAWING_1
 62
7
100
AcDbPolyline
 90
2
 70
0
 10
81.479260
 20
153.709742
 30
0.0
 10
81.517023
 20
153.880084
 30
0.0
  0
LWPOLYLINE
  5
30c
100
AcDbEntity
  8
SHEET_VIEW_1_DRAWING_1
 62
7
100
AcDbPolyline
 90
3
 70
0
 10
81.569490
 20
154.046486
 30
0.0
 10
81.636260
 20
154.207682
 30
0.0
 10
81.716824
 20
154.362446
 30
0.0
  0
LWPOLYLINE
  5
30d
100
AcDbEntity
  8
SHEET_VIEW_1_DRAWING_1
 62
7
100
AcDbPolyline
 90
2
 70
0
 10
81.810571
 20
154.509598
 30
0.0
 10
81.916786
 20
154.648021
 30
0.0
  0
LWPOLYLINE
  5
30e
100
AcDbEntity
  8
SHEET_VIEW_1_DRAWING_1
 62
7
100
AcDbPolyline
 90
2
 70
0
 10
81.716824
 20
154.362446
 30
0.0
 10
81.810571
 20
154.509598
 30
0.0
  0
LWPOLYLINE
  5
30f
100
AcDbEntity
  8
SHEET_VIEW_1_DRAWING_1
 62
7
100
AcDbPolyline
 90
4
 70
0
 10
81.916786
 20
154.648021
 30
0.0
 10
82.034661
 20
154.776659
 30
0.0
 10
82.163300
 20
154.894534
 30
0.0
 10
82.301722
 20
155.000750
 30
0.0
  0
LWPOLYLINE
  5
310
100
AcDbEntity
  8
SHEET_VIEW_1_DRAWING_1
 62
7
100
AcDbPolyline
 90
2
 70
0
 10
82.448875
 20
155.094496
 30
0.0
 10
82.603639
 20
155.175061
 30
0.0
  0
LWPOLYLINE
  5
311
100
AcDbEntity
  8
SHEET_VIEW_1_DRAWING_1
 62
7
100
AcDbPolyline
 90
2
 70
0
 10
82.301722
 20
155.000750
 30
0.0
 10
82.448875
 20
155.094496
 30
0.0
  0
LWPOLYLINE
  5
312
100
AcDbEntity
  8
SHEET_VIEW_1_DRAWING_1
 62
7
100
AcDbPolyline
 90
9
 70
0
 10
82.603639
 20
155.175061
 30
0.0
 10
82.764835
 20
155.241831
 30
0.0
 10
82.931237
 20
155.294297
 30
0.0
 10
83.101579
 20
155.332061
 30
0.0
 10
83.274564
 20
155.354835
 30
0.0
 10
83.448875
 20
155.362446
 30
0.0
 10
83.623186
 20
155.354835
 30
0.0
 10
83.796171
 20
155.332061
 30
0.0
 10
83.966513
 20
155.294297
 30
0.0
  0
LWPOLYLINE
  5
313
100
AcDbEntity
  8
SHEET_VIEW_1_DRAWING_1
 62
7
100
AcDbPolyline
 90
2
 70
0
 10
84.132915
 20
155.241831
 30
0.0
 10
84.294112
 20
155.175061
 30
0.0
  0
LWPOLYLINE
  5
314
100
AcDbEntity
  8
SHEET_VIEW_1_DRAWING_1
 62
7
100
AcDbPolyline
 90
2
 70
0
 10
83.966513
 20
155.294297
 30
0.0
 10
84.132915
 20
155.241831
 30
0.0
  0
LWPOLYLINE
  5
315
100
AcDbEntity
  8
SHEET_VIEW_1_DRAWING_1
 62
7
100
AcDbPolyline
 90
2
 70
0
 10
64.357815
 20
148.785144
 30
0.0
 10
88.106499
 20
148.785144
 30
0.0
  0
ENDSEC
  0
SECTION
  2
OBJECTS
  0
DICTIONARY
  5
C
330
0
100
AcDbDictionary
  3
ACAD_GROUP
350
D
  3
ACAD_MLINESTYLE
350
17
  0
DICTIONARY
  5
D
330
C
100
AcDbDictionary
  0
DICTIONARY
  5
1A
330
C
100
AcDbDictionary
  0
DICTIONARY
  5
17
330
C
100
AcDbDictionary
  3
STANDARD
350
18
  0
DICTIONARY
  5
19
330
C
100
AcDbDictionary
  0
ENDSEC
  0
EOF
